<?xml version="1.0" encoding="UTF-8"?>
<svg version="1.1" xmlns="http://www.w3.org/2000/svg" width="1024" height="1024">
<path d="M0 0 C18.06511927 5.11625276 36.02466277 25.92688176 48.8203125 38.93359375 C50.68991772 40.77171088 52.62428732 42.48766938 54.61328125 44.1953125 C61.90850311 50.50738922 68.25801719 57.33598813 74.28515625 64.859375 C77.67183738 68.96544918 81.27542676 72.84451902 84.90234375 76.73828125 C86.96318854 78.95607161 88.94802353 81.22800188 90.921875 83.5234375 C95.11187753 88.33065613 99.59497024 92.82353435 104.11328125 97.3203125 C104.92087891 98.13177734 105.72847656 98.94324219 106.56054688 99.77929688 C115.19372006 108.39855681 124.38272022 116.08858795 134.04931641 123.5078125 C135.39362879 124.54096762 136.72925284 125.58541702 138.0625 126.6328125 C172.33044186 152.2261048 215.41619631 159.46539755 256.9074707 162.6315918 C270.93748861 163.76370451 283.94065484 165.77178772 296.92578125 171.4453125 C297.95719238 171.88738037 298.98860352 172.32944824 300.05126953 172.78491211 C311.86917361 177.97757087 321.45147641 184.68547315 330.67578125 193.7578125 C331.44792969 194.51707031 332.22007812 195.27632812 333.015625 196.05859375 C359.63170653 223.85761224 362.60450862 269.25500437 362.98828125 305.8203125 C363.00600586 306.85051514 363.02373047 307.88071777 363.04199219 308.94213867 C363.04102539 309.9035376 363.04005859 310.86493652 363.0390625 311.85546875 C363.04353394 313.13176147 363.04353394 313.13176147 363.0480957 314.43383789 C362.58143191 317.346738 361.77672513 318.69483396 359.67578125 320.7578125 C357.59790039 321.25952148 357.59790039 321.25952148 355.2109375 321.25390625 C353.89609375 321.25837769 353.89609375 321.25837769 352.5546875 321.26293945 C351.62527344 321.24062256 350.69585938 321.21830566 349.73828125 321.1953125 C348.78695313 321.18137451 347.835625 321.16743652 346.85546875 321.15307617 C339.77049741 320.96761521 333.38803251 320.11434388 326.67578125 317.7578125 C325.72832031 317.46390625 324.78085937 317.17 323.8046875 316.8671875 C307.67911053 311.36189498 292.66133125 301.66042023 279.67578125 290.7578125 C278.9075 290.16355469 278.13921875 289.56929687 277.34765625 288.95703125 C266.30796116 280.00217067 257.88163694 266.88985317 250.67578125 254.7578125 C256.86851263 272.61271198 264.22131606 286.44059252 276.67578125 300.7578125 C277.40667969 301.59957031 278.13757813 302.44132812 278.890625 303.30859375 C281.1180289 305.82567759 283.38484617 308.2984839 285.67578125 310.7578125 C286.76052734 311.94117188 286.76052734 311.94117188 287.8671875 313.1484375 C310.00748171 336.37514208 339.16382904 349.01891817 368.19091797 361.28271484 C373.44371733 363.50615703 378.68469258 365.75694029 383.92578125 368.0078125 C385.63925894 368.74233677 387.35279349 369.4767284 389.06640625 370.2109375 C390.2575 370.72140625 391.44859375 371.231875 392.67578125 371.7578125 C392.67578125 373.0778125 392.67578125 374.3978125 392.67578125 375.7578125 C352.70896455 378.26969344 308.65873213 354.82574063 278.9296875 329.41015625 C276.47333251 327.23046834 274.06709476 325.00846051 271.67578125 322.7578125 C271.01320313 322.1596875 270.350625 321.5615625 269.66796875 320.9453125 C247.82692013 300.43064335 236.27311315 270.49410592 234.51171875 241.01171875 C234.02938175 224.15184808 236.03760261 201.03416978 243.67578125 185.7578125 C228.57744807 193.91483406 222.15706021 208.89700783 217.42578125 224.6953125 C215.98075851 229.65322712 214.67932947 234.62668465 213.55859375 239.66796875 C213.38618164 240.44213135 213.21376953 241.21629395 213.03613281 242.01391602 C212.72218408 243.4653762 212.42358067 244.92027742 212.14355469 246.37866211 C211.23163286 250.73400507 210.25924027 253.08891204 206.67578125 255.7578125 C203.80931891 257.42027047 200.86525402 258.85728817 197.86328125 260.2578125 C197.02249023 260.65291016 196.18169922 261.04800781 195.31542969 261.45507812 C181.59135165 267.71737026 168.03389039 269.93899325 152.98828125 270.0078125 C151.88033203 270.0284375 150.77238281 270.0490625 149.63085938 270.0703125 C138.3190014 270.12320254 126.02945879 268.44268187 117.30078125 260.6328125 C113.64792748 254.17007122 113.44662586 246.17577688 112.73925781 238.90307617 C110.54691928 216.90627137 104.58491019 198.75052706 88.67578125 182.7578125 C88.07378906 182.12101563 87.47179687 181.48421875 86.8515625 180.828125 C81.1285881 175.24170747 70.85718853 168.7578125 62.67578125 168.7578125 C63.14886719 169.24507812 63.62195313 169.73234375 64.109375 170.234375 C80.23182842 187.51965645 87.4742761 206.88549218 88.234375 230.375 C87.52189882 234.68971592 86.1287509 236.15198461 82.67578125 238.7578125 C81.35578125 238.7578125 80.03578125 238.7578125 78.67578125 238.7578125 C78.45027588 239.54877319 78.45027588 239.54877319 78.22021484 240.35571289 C66.28325576 281.92754886 45.80974508 303.49590561 10.13891602 327.10693359 C-16.44534392 343.28726538 -16.44534392 343.28726538 -33.32421875 367.7578125 C-35.81128703 384.27031501 -30.60301014 407.83962542 -21.32421875 421.7578125 C-20.30046426 428.56697026 -21.4366009 433.16936184 -25.32421875 438.7578125 C-27.578125 438.62890625 -27.578125 438.62890625 -30.32421875 437.7578125 C-32.2890625 435.23046875 -32.2890625 435.23046875 -34.26171875 431.8203125 C-37.88486867 425.80190596 -41.89874025 420.26156171 -46.26171875 414.7578125 C-51.75975277 407.79774621 -57.0229962 400.73228437 -62.11230469 393.46972656 C-63.39749815 391.65430018 -64.70563571 389.85724937 -66.01953125 388.0625 C-76.30851934 373.97687159 -76.30851934 373.97687159 -78.13671875 366.3828125 C-77.04548578 361.51423462 -74.57549576 359.35106445 -71.1484375 355.81640625 C-67.76738668 352.26708415 -64.88443227 348.36414173 -61.94921875 344.4453125 C-57.11215437 338.02878415 -52.1067186 331.82469659 -46.8671875 325.734375 C-44.48666135 322.94795268 -42.18047383 320.11574073 -39.88671875 317.2578125 C-20.22255479 293.30518725 3.1208855 281.3170032 31.67578125 269.7578125 C31.67578125 269.4278125 31.67578125 269.0978125 31.67578125 268.7578125 C31.09836182 268.71817383 30.52094238 268.67853516 29.92602539 268.63769531 C19.91584538 267.91992069 9.97378246 267.14040629 0.17578125 264.8828125 C-0.49831787 264.73360352 -1.17241699 264.58439453 -1.86694336 264.43066406 C-6.44089916 263.29659668 -9.59062284 261.51191565 -13.32421875 258.7578125 C-12.99421875 257.7678125 -12.66421875 256.7778125 -12.32421875 255.7578125 C-12.60191783 253.417206 -12.92961852 251.08156942 -13.32421875 248.7578125 C-13.98421875 248.7578125 -14.64421875 248.7578125 -15.32421875 248.7578125 C-18.37903786 239.77371349 -21.10084078 231.34275833 -21.32421875 221.7578125 C-21.98421875 221.7578125 -22.64421875 221.7578125 -23.32421875 221.7578125 C-22.99421875 230.3378125 -22.66421875 238.9178125 -22.32421875 247.7578125 C-27.0480615 245.39589113 -27.63957541 244.08315822 -29.5390625 239.42382812 C-30.9466445 234.64435192 -30.91430965 229.95732824 -30.82421875 225.0078125 C-30.81213379 223.94594727 -30.80004883 222.88408203 -30.78759766 221.79003906 C-30.58532224 213.78483637 -29.62788718 207.12202696 -26.32421875 199.7578125 C-25.65326172 198.2109375 -25.65326172 198.2109375 -24.96875 196.6328125 C-21.86036228 189.96602918 -18.09709497 184.33123484 -13.32421875 178.7578125 C-12.70675781 178.00757813 -12.08929688 177.25734375 -11.453125 176.484375 C7.00641932 154.71919799 33.13171002 148.18079905 60.49414062 145.9128418 C65.55320621 145.50739544 70.61386581 145.12584422 75.67578125 144.7578125 C66.81596868 135.53764123 52.89899414 130.97151404 40.30078125 130.3828125 C18.99655456 131.31584433 1.64533512 140.81902931 -14.36328125 154.2890625 C-16.32421875 155.7578125 -16.32421875 155.7578125 -18.32421875 155.7578125 C-17.72811763 151.22684617 -16.53334581 147.41991715 -14.77734375 143.20703125 C-14.25867359 141.94656628 -13.74029232 140.6859824 -13.22216797 139.42529297 C-12.9524115 138.77477966 -12.68265503 138.12426636 -12.40472412 137.45404053 C-3.80509589 116.65427829 1.58775961 97.31994535 2.67578125 74.7578125 C-1.31895668 78.24180768 -3.48323044 82.28068145 -5.94921875 86.8828125 C-6.83705713 88.5105162 -7.72508318 90.13811755 -8.61328125 91.765625 C-9.06348633 92.59610352 -9.51369141 93.42658203 -9.97753906 94.28222656 C-11.66117955 97.37724371 -13.37105776 100.45712223 -15.0859375 103.53491211 C-15.9213359 105.03457741 -16.75462249 106.53542081 -17.5859375 108.03735352 C-19.5681788 111.61789193 -21.56475775 115.1873862 -23.61328125 118.73046875 C-50.3964304 165.38334548 -65.41648399 213.1911315 -70.32421875 266.7578125 C-70.98421875 266.7578125 -71.64421875 266.7578125 -72.32421875 266.7578125 C-79.30616112 245.81198538 -75.2789717 213.99295261 -71.32421875 192.7578125 C-71.08203613 191.43378418 -71.08203613 191.43378418 -70.83496094 190.08300781 C-68.63584429 178.6649954 -65.3326979 167.62393547 -61.7734375 156.5703125 C-61.44870453 155.56150528 -61.12397156 154.55269806 -60.78939819 153.51332092 C-59.14921337 148.43702613 -57.48786114 143.36892057 -55.79394531 138.31030273 C-50.02875072 120.9068892 -45.52915351 103.1689122 -43.95729065 84.85475159 C-43.63944584 81.37195817 -43.31818193 79.74875726 -41.32421875 76.7578125 C-39.52758789 75.96166992 -39.52758789 75.96166992 -37.359375 75.36328125 C-36.16731445 75.01849731 -36.16731445 75.01849731 -34.95117188 74.66674805 C-34.10490234 74.42867432 -33.25863281 74.19060059 -32.38671875 73.9453125 C-12.95242824 68.10522838 0.82339949 57.51375637 10.67578125 39.5703125 C12.83152107 34.98208247 13.35815717 31.79033489 12.67578125 26.7578125 C10.51223828 21.89173865 7.72144738 20.37403062 2.98828125 18.1328125 C2.3648584 17.83431396 1.74143555 17.53581543 1.09912109 17.22827148 C-3.29749649 15.15098099 -7.72292639 13.3222519 -12.32421875 11.7578125 C-3.4973438 -0.3644291 -3.4973438 -0.3644291 0 0 Z " fill="#D1D1D1" transform="translate(439.32421875,273.2421875)"/>
<path d="M0 0 C1.18529297 0.01353516 1.18529297 0.01353516 2.39453125 0.02734375 C3.28205078 0.04474609 3.28205078 0.04474609 4.1875 0.0625 C3.31604474 4.68121285 0.86855332 8.37065668 -1.4375 12.40625 C-5.50767006 20.26907853 -4.97305687 31.69741139 -3.12890625 40.22265625 C-2.21143832 42.68573405 -1.18061912 44.82102182 0.1875 47.0625 C0.57679688 47.70316406 0.96609375 48.34382813 1.3671875 49.00390625 C7.27835509 57.10115653 17.99674234 60.70228945 27.4765625 62.59375 C40.48777414 64.23727147 53.32048663 63.08226846 66.23388672 61.13037109 C74.88342234 59.83409402 82.90617995 59.83313468 91.5625 61 C92.25988281 61.08701172 92.95726562 61.17402344 93.67578125 61.26367188 C96.64644792 61.64854712 99.33793297 62.11264432 102.1875 63.0625 C101.32266507 70.53999589 95.29509911 75.47366543 89.75390625 80.08984375 C78.75439406 88.13268706 67.29544467 92.47561609 53.6875 92.1875 C52.86507812 92.17847656 52.04265625 92.16945313 51.1953125 92.16015625 C49.19257917 92.13686865 47.18999846 92.10100959 45.1875 92.0625 C44.8575 91.0725 44.5275 90.0825 44.1875 89.0625 C45.14527344 88.71058594 46.10304688 88.35867188 47.08984375 87.99609375 C54.510811 85.2531325 61.90581169 82.44273072 69.25 79.5 C69.93892334 79.23179443 70.62784668 78.96358887 71.33764648 78.68725586 C76.16461509 76.72727092 80.03950341 74.21799806 84.1875 71.0625 C78.27086781 71.66156742 72.83588388 72.87706785 67.125 74.5 C54.29447105 77.98005448 41.75056243 79.24410647 28.50634766 79.72167969 C23.6594373 79.90041008 18.97483929 80.27545101 14.1875 81.0625 C16.8172271 86.42630845 21.10016391 89.9708764 25.4375 93.9375 C27.65492052 95.98464739 29.86871779 98.03400625 32.06323242 100.10571289 C33.43722275 101.37137574 34.85057008 102.59611973 36.3059082 103.76733398 C39.06870004 106.11946395 40.95460974 107.75874735 41.60791016 111.41601562 C41.57231999 114.13324744 41.28793537 116.68948295 40.875 119.375 C40.75543945 120.31053711 40.63587891 121.24607422 40.51269531 122.20996094 C39.62012456 128.57815279 38.43825503 134.44562164 35.1875 140.0625 C34.74277344 140.83464844 34.29804688 141.60679687 33.83984375 142.40234375 C26.18535915 154.66993107 14.97055799 162.44071882 1.046875 166.4140625 C-6.39667071 167.66469872 -18.86523506 169.53613247 -25.8125 166.0625 C-25.8125 165.4025 -25.8125 164.7425 -25.8125 164.0625 C-24.80832031 163.75957031 -23.80414063 163.45664062 -22.76953125 163.14453125 C5.32773623 154.94865177 5.32773623 154.94865177 25.25 134.6875 C29.11115002 126.38289195 30.4928316 115.8314469 27.47558594 106.97216797 C26.76892819 105.31064624 25.98556496 103.68210241 25.1875 102.0625 C25.11273438 102.64515625 25.03796875 103.2278125 24.9609375 103.828125 C23.25734419 114.45053031 18.83370683 124.38705102 10.1875 131.0625 C1.94588486 136.25276747 -7.35078214 138.27434661 -16.6875 140.5625 C-36.01522745 144.47838437 -36.01522745 144.47838437 -51.8125 155.0625 C-52.32011477 157.97680595 -52.5228068 160.17273218 -52.4375 163.0625 C-52.36092244 167.21300401 -52.31351724 170.27838424 -54.6171875 173.8984375 C-62.4166515 181.5868771 -72.25329984 184.22217709 -83.0625 184.25 C-84.64636983 184.20302081 -86.23016697 184.14660038 -87.8125 184.0625 C-87.12005173 179.90059735 -85.78722702 176.87019139 -83.75 173.22265625 C-80.75122088 166.31296937 -80.36517709 156.43566103 -82.71875 149.32421875 C-85.29565043 144.27778874 -87.49903843 142.28067816 -92.8125 140.0625 C-95.5479564 139.76159803 -98.06832667 139.59846325 -100.80078125 139.5859375 C-101.54458542 139.57035797 -102.28838959 139.55477844 -103.05473328 139.53872681 C-105.41147949 139.49149556 -107.76793252 139.46352098 -110.125 139.4375 C-112.4997166 139.40101391 -114.8742666 139.36047745 -117.24882507 139.31484985 C-118.7222056 139.28760388 -120.19570914 139.26626092 -121.66926575 139.25131226 C-126.70178738 139.17321262 -126.70178738 139.17321262 -127.8125 138.0625 C-127.49083791 132.73577571 -126.40450042 129.83471401 -122.9375 125.8125 C-121.72320312 124.40291016 -121.72320312 124.40291016 -120.484375 122.96484375 C-116.89290087 119.06357872 -113.16299713 115.33285949 -109.37890625 111.6171875 C-105.99480737 108.24854113 -102.86433826 104.73172163 -99.8125 101.0625 C-99.09707031 100.21300781 -98.38164062 99.36351562 -97.64453125 98.48828125 C-96.55205078 97.16376953 -96.55205078 97.16376953 -95.4375 95.8125 C-94.76976562 95.00296875 -94.10203125 94.1934375 -93.4140625 93.359375 C-91.86953745 91.14430004 -91.16703768 89.71309123 -90.8125 87.0625 C-90.956875 86.340625 -91.10125 85.61875 -91.25 84.875 C-93.30498031 74.60009843 -90.20215605 68.69286607 -84.52783203 60.12207031 C-77.88564663 50.23182148 -70.6834 40.99477894 -62.8125 32.0625 C-62.06484375 31.16917969 -61.3171875 30.27585937 -60.546875 29.35546875 C-46.46041115 12.86214507 -22.29214401 -0.33271857 0 0 Z M-38.875 74.8125 C-45.78683821 79.95033205 -53.25914588 83.96403464 -60.8125 88.0625 C-61.9571875 88.69027344 -63.101875 89.31804687 -64.28125 89.96484375 C-66.78796942 91.33772488 -69.29796206 92.70401022 -71.8125 94.0625 C-70.50034457 98.02630287 -69.01501073 100.15159035 -65.8125 102.8125 C-65.11125 103.40546875 -64.41 103.9984375 -63.6875 104.609375 C-60.03778114 107.43790711 -57.40880245 107.50206323 -52.8125 107.0625 C-50.5295718 105.54054787 -48.69607028 104.12651875 -46.6875 102.3125 C-41.30397847 97.77706209 -36.63088481 95.8122851 -29.76171875 94.0390625 C-23.71072282 92.03542146 -19.78546054 87.86484308 -16.6875 82.4375 C-13.62107566 77.68293961 -8.01731065 76.67716965 -2.89453125 75.10546875 C0.25057512 74.29484765 0.25057512 74.29484765 2.1875 72.0625 C-14.24807197 64.38511264 -24.28150862 63.93806529 -38.875 74.8125 Z " fill="#D0D0D0" transform="translate(332.8125,241.9375)"/>
<path d="M0 0 C39.93457477 -0.7674428 91.56989293 -1.19710645 123.4609375 26.5546875 C133.13042495 35.86714772 138.94029993 44.41456027 139.46630859 57.98828125 C139.57787598 66.30571061 138.97010335 73.53242465 135 81 C134.525625 81.8971875 134.05125 82.794375 133.5625 83.71875 C123.82629514 100.38263909 109.40270265 109.51565199 91.4453125 115.1015625 C87.24755418 116.19621603 83.32681437 116.77227293 79 117 C79 115.68 79 114.36 79 113 C80.32451172 112.25556641 80.32451172 112.25556641 81.67578125 111.49609375 C106.61745338 98.17956715 106.61745338 98.17956715 121 75 C122.19677824 63.66210089 120.60249038 55.93175721 113.66015625 46.984375 C97.36355524 28.70155096 69.06654334 21.58144477 46.5546875 14.3359375 C45.86600082 14.11354904 45.17731415 13.89116058 44.46775818 13.66203308 C41.00264225 12.56350619 37.58217729 11.62535 34 11 C34.53141602 11.27038086 35.06283203 11.54076172 35.61035156 11.81933594 C89.85381458 39.53344788 89.85381458 39.53344788 97.1875 57.98828125 C98.8802411 64.26281679 98.8555587 71.04538021 96.2109375 77.0625 C87.6896548 90.69655232 69.47544178 94.01564609 54.97607422 97.63623047 C53 98 53 98 49 98 C48.54074808 90.65196924 48.90140693 84.64501164 53.81640625 78.86328125 C60.63666347 72.26263875 68.14912071 68.80388915 77.6875 68.75 C79.12605016 68.81264293 80.56445704 68.88789686 82 69 C82.76985716 62.17108185 82.01399138 57.90841616 77.99609375 52.30078125 C72.84360152 46.36180293 67.26247849 41.3865417 60.875 36.8125 C60.10075684 36.25715576 59.32651367 35.70181152 58.52880859 35.12963867 C45.37973386 25.88284463 31.18899301 18.46897038 16.79052734 11.3840332 C3.87281067 5.01671568 3.87281067 5.01671568 0 2 C0 1.34 0 0.68 0 0 Z " fill="#C6C6C6" transform="translate(295,174)"/>
<path d="M0 0 C6.57077052 0.25305756 11.28478486 3.02856902 16.9375 6.1875 C33.70536192 15.18914872 50.73447231 19.87840405 69.08776855 24.49916077 C96.04883078 31.30432712 122.2228707 38.97320122 144 57 C144.85980469 57.69609375 145.71960938 58.3921875 146.60546875 59.109375 C162.16131779 72.32581729 173.22101706 90.766398 175.22314453 111.28710938 C176.56952356 131.63051662 171.37140443 153.28422947 157.89453125 168.984375 C157.26933594 169.64953125 156.64414062 170.3146875 156 171 C155.38511719 171.76828125 154.77023437 172.5365625 154.13671875 173.328125 C152 175 152 175 149.1484375 175.06640625 C145.27274122 173.75367041 142.62013409 171.62572529 139.625 168.9375 C139.07972656 168.46505859 138.53445313 167.99261719 137.97265625 167.50585938 C136.63916697 166.34782921 135.31825781 165.17533989 134 164 C135.48260493 160.53538638 137.46955207 158.3961955 140.125 155.75 C150.81057487 144.06319194 155.54646016 130.23104855 154.875 114.5625 C153.67924403 97.0503371 145.0957158 82.60108579 132.36328125 70.8203125 C114.43492461 55.23276609 91.39615125 49.26522495 69.03125 43.05859375 C13.86347804 27.71576469 13.86347804 27.71576469 -1 7 C-1.3125 3.75 -1.3125 3.75 -1 1 C-0.67 0.67 -0.34 0.34 0 0 Z " fill="#C6C6C6" transform="translate(651,295)"/>
<path d="M0 0 C0.99 0.33 1.98 0.66 3 1 C3.78369141 3.09790039 3.78369141 3.09790039 4.3515625 5.84765625 C4.56296875 6.84603516 4.774375 7.84441406 4.9921875 8.87304688 C5.30542969 10.45182617 5.30542969 10.45182617 5.625 12.0625 C5.8415625 13.08794922 6.058125 14.11339844 6.28125 15.16992188 C8.62573973 26.47991401 9.23978189 37.35362798 9.25 48.875 C9.25100708 49.6586795 9.25201416 50.44235901 9.25305176 51.24978638 C9.22688213 81.30444867 1.96624026 102.07750231 -18.8125 124.25 C-27.89190208 133.96298299 -35.92308449 144.40547322 -43.6875 155.1875 C-44.23712402 155.94579102 -44.78674805 156.70408203 -45.35302734 157.48535156 C-47.77939629 160.84651107 -50.16116545 164.21275173 -52.3984375 167.703125 C-56.05257935 173.16455 -58.57696452 176.47458466 -65.0625 178.25 C-69.74027367 179.02264123 -74.27104914 179.27282409 -79 179 C-77.24421462 173.84760601 -74.32929628 169.42477345 -71.5 164.8125 C-66.20822491 156.07717425 -61.07365929 147.28589013 -56.24414062 138.28613281 C-54.96122475 135.92874972 -53.62985389 133.60281334 -52.296875 131.2734375 C-46.62232659 121.02758229 -43.60380679 111.89121941 -42.70361328 100.13232422 C-41.96903455 93.05679525 -41.96903455 93.05679525 -39.06445312 89.88916016 C-36.78164503 88.10304784 -34.4598671 86.53051944 -32 85 C-30.20369866 83.67291722 -28.41098528 82.34093393 -26.625 81 C-25.81289063 80.401875 -25.00078125 79.80375 -24.1640625 79.1875 C-19.44892514 74.42129617 -18.15267125 67.37447252 -16.546875 61.04296875 C-16.32564972 60.18991653 -16.10442444 59.33686432 -15.87649536 58.45796204 C-15.40563384 56.63991397 -14.93723859 54.82122563 -14.47113037 53.00195312 C-13.50177589 49.21872216 -12.5203256 45.43866285 -11.53964233 41.65835571 C-11.05058058 39.77243302 -10.56215448 37.88634536 -10.07437134 36.00009155 C-8.04563639 28.15641649 -5.97809296 20.32407422 -3.875 12.5 C-3.45105957 10.91094849 -3.45105957 10.91094849 -3.01855469 9.28979492 C-2.76235352 8.3382251 -2.50615234 7.38665527 -2.2421875 6.40625 C-2.0241748 5.59478516 -1.80616211 4.78332031 -1.58154297 3.94726562 C-1 2 -1 2 0 0 Z " fill="#C9C9C9" transform="translate(294,540)"/>
<path d="M0 0 C0.66 0 1.32 0 2 0 C2.32871094 0.99257812 2.65742188 1.98515625 2.99609375 3.0078125 C10.91239325 25.99043372 25.2371754 43.12192638 47.05517578 54.21508789 C63.0056204 61.95655053 79.52014687 64.87966279 97 67 C95.19063097 70.96103698 92.85763129 73.12934113 89.5625 76 C85.66865892 79.35053692 85.66865892 79.35053692 82.40625 83.2734375 C81 85 81 85 79.15234375 85.6015625 C60.50666009 85.79887132 42.64391568 74.6367102 29 63 C27.989375 62.236875 26.97875 61.47375 25.9375 60.6875 C15.87637853 51.48264419 8.14926172 39.57304396 3 27 C3.48981154 46.72604645 15.74122656 64.22287672 29.54101562 77.48046875 C37.87015721 85.0370216 47.49993383 90.3441907 57.44458008 95.49829102 C58.88933716 96.26870728 58.88933716 96.26870728 60.36328125 97.0546875 C61.23251221 97.50312012 62.10174316 97.95155273 62.99731445 98.41357422 C65 100 65 100 65.85620117 102.56689453 C66 105 66 105 64.9375 106.875 C61.99473841 108.58370028 60.29462516 107.78443456 57 107 C53.90399387 105.81885623 50.92426642 104.43270331 47.9375 103 C47.09767578 102.59773193 46.25785156 102.19546387 45.39257812 101.78100586 C23.87997231 91.21604499 6.31390573 74.80760919 -2 52 C-4.50060776 44.54152733 -5.51883447 37.66564582 -5.4375 29.8125 C-5.43355225 28.82161377 -5.42960449 27.83072754 -5.42553711 26.80981445 C-5.25055277 17.7508974 -4.1075531 8.21510621 0 0 Z " fill="#C2C2C2" transform="translate(168,189)"/>
<path d="M0 0 C2.23052275 1.29031506 4.27581168 2.59035778 6.375 4.0625 C16.48669472 10.8309108 27.09854893 16.83588806 39.05859375 19.52734375 C41 20 41 20 42 21 C42.98753029 27.68220934 43.10311597 34.45366659 43.23901367 41.19555664 C44.05850736 77.34856893 57.13383751 111.39067364 80.0390625 139.484375 C81 141 81 141 81 144 C77.82011814 144.57074803 75.6854435 144.40141995 72.87890625 142.7578125 C63.98070426 136.06488414 57.43024443 127.88089591 52.0625 118.1875 C51.29728027 116.82008667 51.29728027 116.82008667 50.51660156 115.42504883 C39.13511753 94.76270219 26.09243082 68.58896553 25.984375 44.51953125 C25.8641286 40.78759821 25.64422947 38.36932268 24 35 C20.23382416 31.94678185 15.73588481 30.11697277 11.35546875 28.1171875 C5.57630439 25.45179169 1.36773412 21.56971026 -3 17 C-3.63808594 16.39285156 -4.27617188 15.78570313 -4.93359375 15.16015625 C-7.88173394 12.15754696 -9.36774315 10.02686046 -9.5625 5.75 C-9 2 -9 2 -7.875 -0.0625 C-4.98176249 -1.50911876 -3.10185985 -0.76807958 0 0 Z " fill="#C1C1C1" transform="translate(831,586)"/>
<path d="M0 0 C3 1 3 1 4.40551758 3.34594727 C8.14979198 11.63487237 11.17300669 19.99917016 13.95172119 28.65127563 C15.22924394 32.62081592 16.53865254 36.57981248 17.84765625 40.5390625 C18.11153137 41.33796402 18.37540649 42.13686554 18.64727783 42.9599762 C25.41442618 63.36888785 32.9386168 83.49039775 42 103 C42.40041504 103.86270508 42.80083008 104.72541016 43.21337891 105.61425781 C50.57215072 121.28017317 59.22374858 136.3922418 69.98828125 149.9921875 C71 152 71 152 70.85546875 154.6328125 C70 157 70 157 67 159 C64.17644877 159.07843198 62.56757226 158.48763374 60.42431641 156.64624023 C25.62931585 121.54602038 -0.2464031 63.64760648 -0.08789062 14.03320312 C-0.07951172 13.01162109 -0.07113281 11.99003906 -0.0625 10.9375 C-0.05798828 9.88111328 -0.05347656 8.82472656 -0.04882812 7.73632812 C-0.03715918 5.15749092 -0.02078885 2.57877706 0 0 Z " fill="#C3C3C3" transform="translate(293,437)"/>
<path d="M0 0 C0.99 0 1.98 0 3 0 C2.9685791 0.60360352 2.9371582 1.20720703 2.90478516 1.82910156 C2.01897466 18.86632543 2.01897466 18.86632543 9 34 C9.40605469 34.59425781 9.81210937 35.18851563 10.23046875 35.80078125 C12.95329857 39.39714691 16.46967724 42.22291911 19.875 45.14453125 C22.07603779 47.06639329 24.20991689 49.03335269 26.3125 51.0625 C26.94800781 51.67222656 27.58351563 52.28195313 28.23828125 52.91015625 C32.49683385 57.96187607 33.48378292 62.58991622 33.375 69.0625 C33.38660156 69.75666016 33.39820313 70.45082031 33.41015625 71.16601562 C33.38476428 75.62230596 32.64428682 78.41132503 30 82 C28.19140625 81.78125 28.19140625 81.78125 26 81 C24.46484375 79.03125 24.46484375 79.03125 22.9375 76.5 C17.51151999 68.36102998 8.9204239 61.18670839 0 57 C-0.99 57 -1.98 57 -3 57 C-3.82293664 66.46377139 0.30943025 73.7350565 6.18359375 80.890625 C7.92605443 82.91412772 9.68025035 84.92684082 11.4375 86.9375 C14 90 14 90 14 92 C5.84517379 93.11202176 -1.23366423 88.74215674 -7.671875 84.0546875 C-9.88255067 82.10365494 -11.48039897 80.31044743 -13.125 77.875 C-13.60195313 77.19179688 -14.07890625 76.50859375 -14.5703125 75.8046875 C-18.42357903 68.24554714 -19.53275455 60.78140152 -19.4375 52.375 C-19.42920166 51.41787109 -19.42090332 50.46074219 -19.41235352 49.47460938 C-18.98959594 31.48108397 -12.49167499 13.30634945 0 0 Z " fill="#C9C9C9" transform="translate(618,198)"/>
<path d="M0 0 C0 1.32 0 2.64 0 4 C-2.14536108 4.5435341 -4.29134314 5.0846166 -6.4375 5.625 C-7.15067383 5.80611328 -7.86384766 5.98722656 -8.59863281 6.17382812 C-12.84090216 7.24198689 -17.08861629 8.249117 -21.36328125 9.1796875 C-49.03717991 15.31482782 -75.92768651 24.90236204 -101.92578125 36.125 C-103.16992798 36.65818848 -103.16992798 36.65818848 -104.43920898 37.20214844 C-105.9752366 37.86293129 -107.50784569 38.53177331 -109.03540039 39.21191406 C-120.60491437 44.22277951 -132.61955567 46.69798854 -145.03320312 48.43798828 C-147.26376237 48.75193704 -149.49112119 49.08392196 -151.71875 49.41796875 C-159.18522078 50.51016842 -166.43555972 51.26909076 -174 51 C-174 50.34 -174 49.68 -174 49 C-173.02192383 48.57807373 -172.04384766 48.15614746 -171.03613281 47.72143555 C-162.18517762 43.88626647 -153.42880922 39.89083083 -144.71878052 35.74685669 C-96.67169076 12.94435569 -53.26641025 -0.64134791 0 0 Z " fill="#BFBFBF" transform="translate(673,581)"/>
<path d="M0 0 C4.31925092 -0.02509621 8.63846094 -0.04304322 12.95776367 -0.05493164 C14.42098736 -0.05989824 15.88420625 -0.06667378 17.34741211 -0.07543945 C26.618882 -0.12950977 35.75931051 0.11168402 45 1 C45 1.33 45 1.66 45 2 C44.22914063 2.03738281 43.45828125 2.07476562 42.6640625 2.11328125 C41.15972656 2.21189453 41.15972656 2.21189453 39.625 2.3125 C38.12839844 2.39951172 38.12839844 2.39951172 36.6015625 2.48828125 C35.74304688 2.65714844 34.88453125 2.82601562 34 3 C31.63019987 5.95377498 31.63019987 5.95377498 32 10 C32.59200195 10.30067383 33.18400391 10.60134766 33.79394531 10.91113281 C89.8331315 39.48139999 89.8331315 39.48139999 97.1875 57.98828125 C98.8802411 64.26281679 98.8555587 71.04538021 96.2109375 77.0625 C87.6896548 90.69655232 69.47544178 94.01564609 54.97607422 97.63623047 C53 98 53 98 49 98 C48.54074808 90.65196924 48.90140693 84.64501164 53.81640625 78.86328125 C60.63666347 72.26263875 68.14912071 68.80388915 77.6875 68.75 C79.12605016 68.81264293 80.56445704 68.88789686 82 69 C82.76985716 62.17108185 82.01399138 57.90841616 77.99609375 52.30078125 C72.84360152 46.36180293 67.26247849 41.3865417 60.875 36.8125 C60.10075684 36.25715576 59.32651367 35.70181152 58.52880859 35.12963867 C45.37973386 25.88284463 31.18899301 18.46897038 16.79052734 11.3840332 C3.87281067 5.01671568 3.87281067 5.01671568 0 2 C0 1.34 0 0.68 0 0 Z " fill="#C0C0C0" transform="translate(295,174)"/>
<path d="M0 0 C6.44665242 5.91511025 8.74194055 14.14009477 11.5 22.25 C14.49580322 30.75511318 18.15240378 35.65363548 25.05078125 41.37890625 C27 43 27 43 29.625 45.5625 C42.10877215 55.7856972 61.51255332 58.51873591 77 57 C89.77889233 55.2813966 101.33631221 50.274906 113 45 C112.06987553 56.01463193 112.06987553 56.01463193 110 60 C107.64903535 61.92079793 105.09255222 63.22885871 102.375 64.5625 C101.61880371 64.94672119 100.86260742 65.33094238 100.08349609 65.72680664 C85.1550137 73.07313424 69.66082203 76.3614049 53.0625 76.3125 C51.97259766 76.32861328 50.88269531 76.34472656 49.75976562 76.36132812 C38.530484 76.36800031 26.2806736 74.61955006 17.625 66.875 C13.97190818 60.41183754 13.77138499 52.41755973 13.06298828 45.14453125 C11.59796532 30.42573585 8.89103952 16.22353434 0.8828125 3.53125 C0 2 0 2 0 0 Z " fill="#696969" transform="translate(539,467)"/>
<path d="M0 0 C0.11069824 0.6798999 0.22139648 1.3597998 0.33544922 2.06030273 C0.84598548 5.18647402 1.36046675 8.31198419 1.875 11.4375 C2.13603516 13.04141602 2.13603516 13.04141602 2.40234375 14.67773438 C3.19340002 19.46801955 4.01377771 24.22522212 5.10546875 28.95703125 C5.8194816 32.07076354 6.34726647 35.04405583 6.4375 38.25 C6.49744141 39.43335938 6.49744141 39.43335938 6.55859375 40.640625 C5.26974474 46.08443482 0.204751 48.59625044 -4.24609375 51.3828125 C-6.3076443 52.6339259 -8.37156059 53.88114721 -10.4375 55.125 C-30.85670695 67.68385757 -47.62940185 81.94410277 -61 102 C-64 101 -64 101 -65.25 99.375 C-66.68124137 94.84273567 -65.82628743 91.64221388 -63.75390625 87.5234375 C-59.48246906 80.41461877 -54.1676759 74.39981981 -48.42626953 68.47314453 C-47.05261829 67.05434762 -45.69585808 65.6192565 -44.33984375 64.18359375 C-37.42887071 57.02834479 -29.91670135 50.99185631 -22 45 C-20.22682837 43.64889659 -18.45561698 42.29521145 -16.6875 40.9375 C-15.99011719 40.41027344 -15.29273438 39.88304687 -14.57421875 39.33984375 C-12.87027896 38.06661283 -12.87027896 38.06661283 -12 36 C-11.90497411 33.88051751 -11.86812083 31.75831237 -11.859375 29.63671875 C-11.84003906 28.35732422 -11.82070313 27.07792969 -11.80078125 25.75976562 C-11.7718551 23.72537505 -11.7500011 21.69208004 -11.74951172 19.6574707 C-11.7461647 17.69205252 -11.70937997 15.72678191 -11.671875 13.76171875 C-11.6625293 12.58569092 -11.65318359 11.40966309 -11.64355469 10.19799805 C-10.5332343 4.68051444 -5.76523808 0 0 0 Z " fill="#C2C2C2" transform="translate(681,630)"/>
<path d="M0 0 C1.86934218 1.13768067 3.63842282 2.35710891 5.41040039 3.64111328 C6.37671387 4.31412476 6.37671387 4.31412476 7.36254883 5.00073242 C9.33099828 6.38199408 11.27916939 7.78782758 13.22290039 9.20361328 C13.81989746 9.63544922 14.41689453 10.06728516 15.03198242 10.51220703 C25.96905546 18.45744142 25.96905546 18.45744142 28.22290039 21.20361328 C28.95306573 27.60696594 26.2212201 32.95458322 22.91040039 38.20361328 C22.24923218 39.28666748 22.24923218 39.28666748 21.57470703 40.39160156 C14.58313616 51.67525739 6.93483253 62.66661908 -1.71069336 72.75048828 C-3.82399636 75.18895128 -3.82399636 75.18895128 -5.68725586 77.90673828 C-7.59638829 80.46270203 -9.14825451 82.39030245 -11.77709961 84.20361328 C-16.58950929 84.77406285 -21.39784456 84.3932408 -25.77709961 82.20361328 C-24.15685885 78.53629414 -21.88346684 75.65195116 -19.40209961 72.51611328 C0.31465767 50.09475379 0.31465767 50.09475379 11.14477539 24.22314453 C9.76655566 21.20390893 7.65266252 20.2357425 4.84790039 18.51611328 C-12.21381098 7.59743435 -12.21381098 7.59743435 -14.77709961 1.20361328 C-9.95129421 -0.67962785 -4.98638301 -2.23459011 0 0 Z " fill="#C2C2C2" transform="translate(589.777099609375,636.79638671875)"/>
<path d="M0 0 C0.33 0 0.66 0 1 0 C2.24671585 40.97283701 2.24671585 40.97283701 -12 58 C-28.03267107 74.71549352 -61.70635017 89.36925142 -84.890625 90.08984375 C-85.58671875 90.06019531 -86.2828125 90.03054688 -87 90 C-83.47360316 80.36691595 -65.7022918 74.04896442 -57.1953125 69.44995117 C-37.30527917 58.69047194 -22.60183688 48.57408247 -12 28 C-11.47889648 26.99702881 -10.95779297 25.99405762 -10.42089844 24.96069336 C-6.27986949 16.85020718 -2.85885987 8.63927391 0 0 Z " fill="#BEBEBE" transform="translate(528,538)"/>
<path d="M0 0 C2.22972273 0.11465421 4.45878753 0.24214766 6.6875 0.375 C7.92886719 0.44460938 9.17023438 0.51421875 10.44921875 0.5859375 C13.90142479 0.98850498 16.01335944 1.2631204 19 3 C20.08606324 5.43171175 20.78667293 7.47013246 21.421875 10.01953125 C21.61219299 10.71511642 21.80251099 11.4107016 21.99859619 12.12736511 C22.60188846 14.35103613 23.17597486 16.58111559 23.75 18.8125 C24.15048621 20.30323464 24.55281024 21.79347686 24.95703125 23.28320312 C29.15119305 38.87006587 29.15119305 38.87006587 29.0625 44.8125 C29.05347656 45.60269531 29.04445313 46.39289062 29.03515625 47.20703125 C29.02355469 47.79871094 29.01195312 48.39039063 29 49 C-11.60353711 46.39646289 -11.60353711 46.39646289 -22 36 C-22.46167861 33.30687478 -22.42697209 31.63597941 -20.8828125 29.3359375 C-19.63593427 27.84954593 -18.32142331 26.42053006 -17 25 C-10.81124474 26.92896268 -4.93703587 29.52469378 1.01171875 32.078125 C5.29631572 33.90367665 9.54768404 35.61226516 14 37 C13.61666504 36.45061768 13.23333008 35.90123535 12.83837891 35.33520508 C11.09545144 32.83116585 9.36017608 30.32191605 7.625 27.8125 C7.02171875 26.94818359 6.4184375 26.08386719 5.796875 25.19335938 C5.21679688 24.35224609 4.63671875 23.51113281 4.0390625 22.64453125 C3.50490723 21.87471924 2.97075195 21.10490723 2.42041016 20.31176758 C-0.26478119 15.94152404 -1.26429986 12.43016358 -1.1875 7.3125 C-1.18105469 6.35988281 -1.17460937 5.40726563 -1.16796875 4.42578125 C-1 2 -1 2 0 0 Z " fill="#C2C2C2" transform="translate(451,691)"/>
<path d="M0 0 C0.95310059 0.0942627 1.90620117 0.18852539 2.88818359 0.28564453 C4.43505859 0.43066406 4.43505859 0.43066406 6.01318359 0.57861328 C7.09341797 0.69076172 8.17365234 0.80291016 9.28662109 0.91845703 C10.91857422 1.07507813 10.91857422 1.07507813 12.58349609 1.23486328 C15.27729457 1.4947912 17.96971424 1.76472237 20.66162109 2.04345703 C20.1462427 6.94568726 19.15380024 10.71983855 16.91162109 15.10595703 C16.42177734 16.08693359 15.93193359 17.06791016 15.42724609 18.07861328 C13.66162109 21.04345703 13.66162109 21.04345703 8.66162109 27.04345703 C18.23162109 27.37345703 27.80162109 27.70345703 37.66162109 28.04345703 C37.33162109 31.01345703 37.00162109 33.98345703 36.66162109 37.04345703 C16.86162109 37.04345703 -2.93837891 37.04345703 -23.33837891 37.04345703 C-22.42752687 32.48919687 -21.07468447 29.1673994 -18.90087891 25.16845703 C-18.55395996 24.52368408 -18.20704102 23.87891113 -17.84960938 23.21459961 C-5.15086362 0.09572497 -5.15086362 0.09572497 0 0 Z " fill="#CDCDCD" transform="translate(206.33837890625,733.95654296875)"/>
<path d="M0 0 C0.33 0 0.66 0 1 0 C1 3.63 1 7.26 1 11 C1.99 11 2.98 11 4 11 C4 9.35 4 7.7 4 6 C4.66 6 5.32 6 6 6 C6.53229326 7.26607607 7.05044544 8.53810412 7.5625 9.8125 C7.85253906 10.52019531 8.14257812 11.22789062 8.44140625 11.95703125 C9 14 9 14 8 17 C7.67 16.34 7.34 15.68 7 15 C7.48981154 34.72604645 19.74122656 52.22287672 33.54101562 65.48046875 C41.87015721 73.0370216 51.49993383 78.3441907 61.44458008 83.49829102 C62.88933716 84.26870728 62.88933716 84.26870728 64.36328125 85.0546875 C65.23251221 85.50312012 66.10174316 85.95155273 66.99731445 86.41357422 C69 88 69 88 69.85620117 90.56689453 C70 93 70 93 68.9375 94.875 C65.99473841 96.58370028 64.29462516 95.78443456 61 95 C57.90399387 93.81885623 54.92426642 92.43270331 51.9375 91 C51.09767578 90.59773193 50.25785156 90.19546387 49.39257812 89.78100586 C27.86974763 79.21102359 10.33150422 62.80695598 2 40 C-0.62821001 32.28942861 -1.42125266 25.30594657 -1.25 17.1875 C-1.24484375 16.19041016 -1.2396875 15.19332031 -1.234375 14.16601562 C-1.18305443 9.34509004 -0.99727193 4.73704169 0 0 Z " fill="#AEAEAE" transform="translate(164,201)"/>
<path d="M0 0 C2.52113092 -0.05447822 5.0410585 -0.09389852 7.5625 -0.125 C8.26697266 -0.14175781 8.97144531 -0.15851562 9.69726562 -0.17578125 C14.51891822 -0.22022044 18.42297438 0.47231996 23 2 C21.78236054 9.67433294 19.45984596 16.08030809 16 23 C21.80769866 23.94803312 27.56209187 24.30447272 33.4375 24.5625 C34.35982422 24.60568359 35.28214844 24.64886719 36.23242188 24.69335938 C38.48816163 24.79854931 40.74399499 24.90069107 43 25 C43.125 31.75 43.125 31.75 42 34 C23.19 34 4.38 34 -15 34 C-14.18347999 29.91739993 -13.36993743 27.3342325 -11.6015625 23.69140625 C-11.12203125 22.69689453 -10.6425 21.70238281 -10.1484375 20.67773438 C-9.64570312 19.64970703 -9.14296875 18.62167969 -8.625 17.5625 C-8.13 16.53833984 -7.635 15.51417969 -7.125 14.45898438 C-4.78343423 9.62246149 -2.41956693 4.79798477 0 0 Z " fill="#C8C8C8" transform="translate(851,737)"/>
<path d="M0 0 C1.1765918 0.00580078 1.1765918 0.00580078 2.37695312 0.01171875 C3.14974609 0.00785156 3.92253906 0.00398437 4.71875 0 C5.46833984 0.00128906 6.21792969 0.00257813 6.99023438 0.00390625 C7.67512939 0.00503418 8.36002441 0.00616211 9.06567383 0.00732422 C11.16749387 0.14338928 13.04072368 0.5665983 15.06445312 1.13671875 C14.50572585 5.70192943 13.28855136 9.17839831 11.18945312 13.26171875 C10.67640625 14.27492188 10.16335938 15.288125 9.63476562 16.33203125 C8.26249499 18.78300218 6.81458194 20.94643777 5.06445312 23.13671875 C10.74855179 24.22285225 16.37361695 24.48057997 22.13867188 24.7421875 C27.85842328 25.03370383 27.85842328 25.03370383 30.06445312 26.13671875 C29.73445312 28.44671875 29.40445313 30.75671875 29.06445312 33.13671875 C16.86040163 34.00864736 4.73436166 34.26325012 -7.49804688 34.19921875 C-9.20312366 34.19418423 -10.90820191 34.18962484 -12.61328125 34.18554688 C-16.72074065 34.17471759 -20.82812661 34.15756534 -24.93554688 34.13671875 C-24.04132079 28.78542607 -21.83887414 24.63651725 -19.31054688 19.88671875 C-18.6387439 18.61562256 -18.6387439 18.61562256 -17.95336914 17.31884766 C-8.62778612 0.01491406 -8.62778612 0.01491406 0 0 Z " fill="#C9C9C9" transform="translate(556.935546875,736.86328125)"/>
<path d="M0 0 C1.11503906 0.00644531 2.23007812 0.01289063 3.37890625 0.01953125 C4.53777344 0.03628906 5.69664062 0.05304688 6.890625 0.0703125 C8.65212891 0.08384766 8.65212891 0.08384766 10.44921875 0.09765625 C13.34656036 0.12121187 16.24348941 0.15410598 19.140625 0.1953125 C19.140625 0.5253125 19.140625 0.8553125 19.140625 1.1953125 C18.54113037 1.22036865 17.94163574 1.2454248 17.32397461 1.27124023 C14.57519176 1.38817023 11.82667125 1.51045197 9.078125 1.6328125 C8.13517578 1.67212891 7.19222656 1.71144531 6.22070312 1.75195312 C1.12947022 1.98256646 -3.83002256 2.3652252 -8.859375 3.1953125 C-6.2296479 8.55912095 -1.94671109 12.1036889 2.390625 16.0703125 C4.60804552 18.11745989 6.82184279 20.16681875 9.01635742 22.23852539 C10.39034775 23.50418824 11.80369508 24.72893223 13.2590332 25.90014648 C16.02182504 28.25227645 17.90773474 29.89155985 18.56103516 33.54882812 C18.52544499 36.26605994 18.24106037 38.82229545 17.828125 41.5078125 C17.70856445 42.44334961 17.58900391 43.37888672 17.46582031 44.34277344 C16.57324956 50.71096529 15.39138003 56.57843414 12.140625 62.1953125 C11.47353516 63.35353516 11.47353516 63.35353516 10.79296875 64.53515625 C3.13848415 76.80274357 -8.07631701 84.57353132 -22 88.546875 C-29.44354571 89.79751122 -41.91211006 91.66894497 -48.859375 88.1953125 C-48.859375 87.5353125 -48.859375 86.8753125 -48.859375 86.1953125 C-47.35310547 85.74091797 -47.35310547 85.74091797 -45.81640625 85.27734375 C-17.71913877 77.08146427 -17.71913877 77.08146427 2.203125 56.8203125 C6.0555935 48.53437678 7.42878666 38.03246874 4.46606445 29.1796875 C3.44122771 26.75694712 2.25418102 24.42242455 1.078125 22.0703125 C0.140625 20.1953125 0.140625 20.1953125 -0.66015625 17.828125 C-2.37582838 14.06147022 -5.11706602 11.96076669 -8.1796875 9.2578125 C-9.859375 7.1953125 -9.859375 7.1953125 -10.1015625 4.4453125 C-10.02164063 3.7028125 -9.94171875 2.9603125 -9.859375 2.1953125 C-6.48238712 0.15357715 -3.91391277 -0.03993789 0 0 Z " fill="#A9A9A9" transform="translate(355.859375,319.8046875)"/>
<path d="M0 0 C13.26636578 9.0899173 21.08566825 31.75476076 27 46 C27.28665527 46.68626465 27.57331055 47.3725293 27.86865234 48.07958984 C32 58.06599343 32 58.06599343 32 63 C27.71 63 23.42 63 19 63 C18.29617188 61.47375 17.59234375 59.9475 16.8671875 58.375 C11.54132704 46.97327369 5.97334138 35.80867206 -0.375 24.9375 C-1.22989014 23.46893555 -1.22989014 23.46893555 -2.10205078 21.97070312 C-5.09822695 16.9184306 -8.20590492 12.2330084 -12.01806641 7.75610352 C-13 6 -13 6 -12.75537109 3.85522461 C-12 2 -12 2 -10.4375 0.75 C-6.79516955 -0.37071706 -3.69885462 -0.95273528 0 0 Z " fill="#C3C3C3" transform="translate(835,657)"/>
<path d="M0 0 C0.33 0 0.66 0 1 0 C5.38979847 34.95493783 5.38979847 34.95493783 5.4375 50 C5.44716797 50.97001953 5.45683594 51.94003906 5.46679688 52.93945312 C5.37187049 60.61732223 5.37187049 60.61732223 2 64 C-0.07788086 64.50170898 -0.07788086 64.50170898 -2.46484375 64.49609375 C-3.7796875 64.50056519 -3.7796875 64.50056519 -5.12109375 64.50512695 C-6.05050781 64.48281006 -6.97992187 64.46049316 -7.9375 64.4375 C-8.88882813 64.42356201 -9.84015625 64.40962402 -10.8203125 64.39526367 C-17.90354884 64.20984812 -24.29065478 63.36122879 -31 61 C-32.49080078 60.52433594 -32.49080078 60.52433594 -34.01171875 60.0390625 C-43.74010135 56.66464197 -52.27958649 51.37845863 -61 46 C-59.1171875 45.41796875 -59.1171875 45.41796875 -57 45 C-55.63461347 45.95577057 -54.30518475 46.96352976 -53 48 C-43.57806398 51.91045766 -31.47370132 51.36200083 -22 47.9375 C-13.95641502 44.3524173 -3.43834911 38.74753718 0.1484375 30.29296875 C1.1164745 26.54959632 0.99201888 23.71646424 0.625 19.875 C0.06578125 13.22358637 -0.11180978 6.67131698 0 0 Z " fill="#9A9A9A" transform="translate(797,530)"/>
<path d="M0 0 C0.03867188 1.51980469 0.03867188 1.51980469 0.078125 3.0703125 C0.13444181 4.42191597 0.19178833 5.77347681 0.25 7.125 C0.26417969 7.79015625 0.27835938 8.4553125 0.29296875 9.140625 C0.53905644 14.16081392 1.85893121 17.11499386 5 21 C8.20613847 22.60306924 11.52139997 22.48740461 15 22 C18.5494133 19.83948756 20.52420021 17.85825685 22 14 C22.20417588 10.75356243 22.20417588 10.75356243 22.0625 7.3125 C22.00868201 5.20891853 21.9794572 3.10416952 22 1 C23 0 23 0 26.375 -0.3125 C30 0 30 0 31.66796875 1.703125 C34.54616043 6.66610654 34.52684453 12.39368964 33.41015625 17.91796875 C30.85038927 25.88290892 26.86880877 30.73711185 19.6875 34.9375 C12.8813683 36.8985888 7.28586212 36.90919577 0.75 34 C-5.02779289 30.75680494 -8.54686025 26.81059394 -10.91015625 20.61328125 C-12.3475723 15.13044279 -12.11683445 10.43431157 -10.265625 5.07421875 C-8.73692217 2.56884467 -7.59129778 1.91559609 -4.875 0.875 C-1 0 -1 0 0 0 Z " fill="#B3B3B3" transform="translate(206,393)"/>
<path d="M0 0 C0.99 0 1.98 0 3 0 C2.34653979 4.7795947 0.40352304 8.68501876 -1.625 13 C-16.09280909 44.81092409 -22.23252339 79.37012822 -25 114 C-25.66 114 -26.32 114 -27 114 C-30.23824309 104.28527073 -29.23980622 92.97159294 -29.25 82.8125 C-29.25133942 82.02164001 -29.25267883 81.23078003 -29.25405884 80.41595459 C-29.24731066 61.96085975 -27.45370687 43.94117378 -23 26 C-22.67 26 -22.34 26 -22 26 C-20.875 32.625 -20.875 32.625 -22 36 C-22.66 36 -23.32 36 -24 36 C-24 36.99 -24 37.98 -24 39 C-22.35 38.34 -20.7 37.68 -19 37 C-18.9175 35.948125 -18.835 34.89625 -18.75 33.8125 C-17.94347778 29.71267873 -16.92278322 27.92278322 -14 25 C-13.34 25 -12.68 25 -12 25 C-11.67 24.01 -11.34 23.02 -11 22 C-10.01 22 -9.02 22 -8 22 C-7.86722656 21.37351562 -7.73445313 20.74703125 -7.59765625 20.1015625 C-7.42105469 19.28429687 -7.24445313 18.46703125 -7.0625 17.625 C-6.80146484 16.40683594 -6.80146484 16.40683594 -6.53515625 15.1640625 C-6 13 -6 13 -5 11 C-4.34 11 -3.68 11 -3 11 C-2.67 8.03 -2.34 5.06 -2 2 C-1.34 2 -0.68 2 0 2 C0 1.34 0 0.68 0 0 Z " fill="#787878" transform="translate(394,426)"/>
<path d="M0 0 C4.31925092 -0.02509621 8.63846094 -0.04304322 12.95776367 -0.05493164 C14.42098736 -0.05989824 15.88420625 -0.06667378 17.34741211 -0.07543945 C26.618882 -0.12950977 35.75931051 0.11168402 45 1 C45 1.33 45 1.66 45 2 C44.22914063 2.03738281 43.45828125 2.07476562 42.6640625 2.11328125 C41.15972656 2.21189453 41.15972656 2.21189453 39.625 2.3125 C38.12839844 2.39951172 38.12839844 2.39951172 36.6015625 2.48828125 C35.74304688 2.65714844 34.88453125 2.82601562 34 3 C31.63019987 5.95377498 31.63019987 5.95377498 32 10 C43.385 15.94 43.385 15.94 55 22 C54.34 22.66 53.68 23.32 53 24 C52.83318891 27.08347826 52.83318891 27.08347826 53 30 C49.5384554 28.67907643 46.31615333 27.16680047 43.0703125 25.3828125 C42.120354 24.86380371 41.17039551 24.34479492 40.19165039 23.81005859 C39.17965576 23.25398926 38.16766113 22.69791992 37.125 22.125 C30.56694564 18.53410539 24.00049187 14.97587249 17.33984375 11.578125 C16.28587402 11.03913574 15.2319043 10.50014648 14.14599609 9.94482422 C12.11787865 8.91229887 10.08573138 7.88764454 8.04931641 6.87158203 C7.13714355 6.40606934 6.2249707 5.94055664 5.28515625 5.4609375 C4.47957275 5.05665527 3.67398926 4.65237305 2.84399414 4.23583984 C1 3 1 3 0 0 Z " fill="#B6B6B6" transform="translate(295,174)"/>
<path d="M0 0 C-1.50554953 4.48300503 -3.98772324 7.95827729 -6.8125 11.6875 C-7.80648813 13.02436905 -8.79995533 14.36162554 -9.79296875 15.69921875 C-10.57679932 16.74988525 -10.57679932 16.74988525 -11.37646484 17.82177734 C-18.77532874 27.74849369 -26.11673655 37.60047314 -32.19775391 48.40625 C-33.93783431 51.45884333 -35.01137652 53.00758435 -38 55 C-40.21532883 49.46167792 -41.38924822 44.37893422 -39.078125 38.7578125 C-33.09114313 28.01646267 -13.16057567 0 0 0 Z " fill="#B3B3B3" transform="translate(306,676)"/>
<path d="M0 0 C3.65141399 4.44661082 6.80507433 9.11801206 9.95703125 13.92578125 C11.23125175 15.84320293 12.53645345 17.74081667 13.88671875 19.60546875 C14.43972656 20.37503906 14.99273437 21.14460937 15.5625 21.9375 C16.05878906 22.60652344 16.55507813 23.27554688 17.06640625 23.96484375 C18.32953391 26.71835635 17.99928046 28.17877564 17 31 C14 33 14 33 11.75 33.0625 C4.49648244 30.26000458 -0.43432588 22.0960295 -4.9375 16.0625 C-5.82018555 14.89364258 -5.82018555 14.89364258 -6.72070312 13.70117188 C-8.15202717 11.8043766 -9.57831558 9.90402445 -11 8 C-10.67 7.34 -10.34 6.68 -10 6 C-7.03 7.98 -7.03 7.98 -4 10 C-3.67 9.01 -3.34 8.02 -3 7 C-2.34 6.34 -1.68 5.68 -1 5 C-0.35232207 2.42938689 -0.35232207 2.42938689 0 0 Z " fill="#868686" transform="translate(346,563)"/>
<path d="M0 0 C1 2 1 2 0.3125 4.5 C-1.15567038 7.29651501 -2.09303901 7.93411431 -5 9 C-5 9.66 -5 10.32 -5 11 C-3.68 11 -2.36 11 -1 11 C-0.67 10.34 -0.34 9.68 0 9 C0.99 9 1.98 9 3 9 C3.33 7.35 3.66 5.7 4 4 C5.32 4.66 6.64 5.32 8 6 C4.16330065 10.26879365 0.33286884 12.70436339 -4.8125 15.1875 C-5.48603516 15.52974609 -6.15957031 15.87199219 -6.85351562 16.22460938 C-14.75195952 20.11714392 -21.73146831 21.31065295 -30.5 21.125 C-31.73363281 21.11146484 -31.73363281 21.11146484 -32.9921875 21.09765625 C-34.99492083 21.07436865 -36.99750154 21.03850959 -39 21 C-39.33 20.01 -39.66 19.02 -40 18 C-39.04222656 17.64808594 -38.08445312 17.29617188 -37.09765625 16.93359375 C-29.676689 14.1906325 -22.28168831 11.38023072 -14.9375 8.4375 C-13.90411499 8.03519165 -13.90411499 8.03519165 -12.84985352 7.62475586 C-8.02288491 5.66477092 -4.14799659 3.15549806 0 0 Z " fill="#BBBBBB" transform="translate(417,313)"/>
<path d="M0 0 C1.82675041 2.74012562 2.64237877 4.64760172 3.5625 7.75 C3.81128906 8.56984375 4.06007813 9.3896875 4.31640625 10.234375 C5.73663805 15.98022707 6.21863522 21.71922251 6.375 27.625 C6.42398438 28.89601563 6.47296875 30.16703125 6.5234375 31.4765625 C5.86496897 35.90894022 4.54927822 37.34566872 1 40 C-0.32 40 -1.64 40 -3 40 C-3.25692627 40.86165771 -3.25692627 40.86165771 -3.51904297 41.74072266 C-4.30337554 44.36911062 -5.08917579 46.99705763 -5.875 49.625 C-6.14441406 50.52863281 -6.41382813 51.43226563 -6.69140625 52.36328125 C-8.0592805 56.933983 -9.45504108 61.48512004 -11 66 C-12.03722175 62.82695541 -11.95448998 61.01331194 -10.890625 57.8671875 C-10.63176514 57.06982178 -10.37290527 56.27245605 -10.10620117 55.45092773 C-9.82365479 54.60087158 -9.5411084 53.75081543 -9.25 52.875 C-5.35203897 40.55375544 -3.08332817 28.16063796 -2.2109375 15.26171875 C-1.9803971 12.78981332 -1.50214417 10.43022446 -1 8 C-0.79708924 6.56459423 -0.60829763 5.12708003 -0.4375 3.6875 C-0.293125 2.470625 -0.14875 1.25375 0 0 Z " fill="#383838" transform="translate(521,472)"/>
<path d="M0 0 C4.91500936 2.40461721 9.6256879 5.16203679 14.375 7.875 C15.77492187 8.66970703 15.77492187 8.66970703 17.203125 9.48046875 C21.9183637 12.17202852 26.53538508 14.90911275 31 18 C30.25 22.75 30.25 22.75 28 25 C22.22592614 24.77550257 17.29267718 22.03199903 12.1875 19.5625 C11.31673828 19.15451172 10.44597656 18.74652344 9.54882812 18.32617188 C3.12956829 15.25913658 3.12956829 15.25913658 2 13 C3.134375 12.87625 4.26875 12.7525 5.4375 12.625 C6.613125 12.41875 7.78875 12.2125 9 12 C9.33 11.34 9.66 10.68 10 10 C11.32 10.66 12.64 11.32 14 12 C14.33 11.34 14.66 10.68 15 10 C14.27296875 9.731875 13.5459375 9.46375 12.796875 9.1875 C10.0393304 8.01669894 7.73364414 6.66687526 5.25 5 C4.47140625 4.484375 3.6928125 3.96875 2.890625 3.4375 C1 2 1 2 0 0 Z " fill="#CACACA" transform="translate(203,272)"/>
<path d="M0 0 C2 1 2 1 3.5625 4.375 C7.58773855 12.69582895 13.48346298 20.17624869 22 24 C22.66 24.33 23.32 24.66 24 25 C24 25.66 24 26.32 24 27 C24.84304688 27.20496094 25.68609375 27.40992188 26.5546875 27.62109375 C27.65039062 27.89050781 28.74609375 28.15992188 29.875 28.4375 C30.96554687 28.70433594 32.05609375 28.97117187 33.1796875 29.24609375 C36 30 36 30 38 31 C39.70363822 31.22622081 41.41328701 31.40888473 43.125 31.5625 C44.03507812 31.64628906 44.94515625 31.73007812 45.8828125 31.81640625 C46.58148438 31.87699219 47.28015625 31.93757812 48 32 C48 32.33 48 32.66 48 33 C35.65192383 33.73435695 18.87952134 32.4111465 8 26 C6.71875 23.87109375 6.71875 23.87109375 6 22 C6.33 21.67 6.66 21.34 7 21 C6.71269945 18.66055264 6.38063221 16.3260857 6 14 C5.34 14 4.68 14 4 14 C3.32968281 12.0429132 2.66385317 10.08428887 2 8.125 C1.62875 7.03445313 1.2575 5.94390625 0.875 4.8203125 C0 2 0 2 0 0 Z " fill="#303030" transform="translate(420,508)"/>
<path d="M0 0 C1.03656226 4.14624906 0.90769492 5.18812053 -0.29296875 9.0859375 C-0.59170898 10.0872168 -0.89044922 11.08849609 -1.19824219 12.12011719 C-1.52469727 13.19422852 -1.85115234 14.26833984 -2.1875 15.375 C-8.36957323 36.67833857 -10.98218739 57.97608677 -13 80 C-13.66 80 -14.32 80 -15 80 C-17.52427653 72.42717042 -17.15440748 63.90909406 -17 56 C-16.67 56 -16.34 56 -16 56 C-15.67 58.97 -15.34 61.94 -15 65 C-14.98582031 64.16984375 -14.97164063 63.3396875 -14.95703125 62.484375 C-14.58697707 52.92297517 -13.23712118 43.67042401 -11.5625 34.25 C-11.34505127 33.01217773 -11.12760254 31.77435547 -10.90356445 30.49902344 C-9.11472474 20.73536015 -9.11472474 20.73536015 -7 17 C-6.67 17.66 -6.34 18.32 -6 19 C-4.02 12.73 -2.04 6.46 0 0 Z " fill="#5A5A5A" transform="translate(382,460)"/>
<path d="M0 0 C0.33 0.66 0.66 1.32 1 2 C0.69964844 2.73476563 0.39929688 3.46953125 0.08984375 4.2265625 C-5.75903208 19.11079849 2.1236674 41.63030363 7.88671875 55.671875 C9.02066258 58.18426402 9.02066258 58.18426402 11 61 C11.265625 63.375 11.265625 63.375 11.25 66 C11.25515625 66.86625 11.2603125 67.7325 11.265625 68.625 C11 71 11 71 9 74 C8.93941406 73.18015625 8.87882812 72.3603125 8.81640625 71.515625 C8.73261719 70.43796875 8.64882813 69.3603125 8.5625 68.25 C8.44068359 66.64898438 8.44068359 66.64898438 8.31640625 65.015625 C8.05909227 62.56320038 7.68187782 60.36078709 7 58 C6.34 58 5.68 58 5 58 C1.34203138 53.38777869 0.42482336 47.58055817 -1 42 C-1.2462915 41.2052124 -1.49258301 40.4104248 -1.74633789 39.59155273 C-3.81049576 32.724341 -4.48986026 26.46681562 -4.4375 19.3125 C-4.45748047 18.33216797 -4.47746094 17.35183594 -4.49804688 16.34179688 C-4.49365823 9.78954726 -3.3715675 5.628181 0 0 Z " fill="#585858" transform="translate(407,634)"/>
<path d="M0 0 C0.66 0.66 1.32 1.32 2 2 C2.66 2.33 3.32 2.66 4 3 C3.02494314 5.55227721 2.46991192 6.75561821 0.00390625 8.03808594 C-6.43963286 9.87578329 -12.31655573 10.401681 -19 10.25 C-19.93972656 10.24484375 -20.87945312 10.2396875 -21.84765625 10.234375 C-28.68874264 10.15562868 -28.68874264 10.15562868 -31 9 C-31 8.34 -31 7.68 -31 7 C-29.61941406 6.76216797 -29.61941406 6.76216797 -28.2109375 6.51953125 C-20.00347399 5.0067503 -12.49919139 2.94544475 -4.73046875 -0.109375 C-2 -1 -2 -1 0 0 Z " fill="#BABABA" transform="translate(338,399)"/>
<path d="M0 0 C-1.58280428 4.84151897 -4.35025563 8.48027393 -7.375 12.5 C-7.85710937 13.15097656 -8.33921875 13.80195312 -8.8359375 14.47265625 C-10.21239607 16.32414264 -11.60453184 18.16282324 -13 20 C-13.71414063 20.9590625 -14.42828125 21.918125 -15.1640625 22.90625 C-17 25 -17 25 -20 26 C-21.2077558 22.37673261 -20.54311128 21.35853631 -19 18 C-20.65 19.32 -22.3 20.64 -24 22 C-24 18.12131123 -22.42349609 17.06181501 -19.78271484 14.41674805 C-18.900271 13.56077026 -18.900271 13.56077026 -18 12.6875 C-17.40783691 12.10589111 -16.81567383 11.52428223 -16.20556641 10.92504883 C-4.94126849 0 -4.94126849 0 0 0 Z " fill="#8E8E8E" transform="translate(306,676)"/>
<path d="M0 0 C0.33 0 0.66 0 1 0 C2.98667617 9.2602096 3.16888371 17.48910272 1.49560547 26.80957031 C1.0238849 29.84624246 0.7990856 32.76715416 0.68359375 35.8359375 C0.64169922 36.89941406 0.59980469 37.96289062 0.55664062 39.05859375 C0.51732422 40.15300781 0.47800781 41.24742187 0.4375 42.375 C0.39431641 43.49261719 0.35113281 44.61023438 0.30664062 45.76171875 C0.20102589 48.50770199 0.0989203 51.25376881 0 54 C-0.33 54 -0.66 54 -1 54 C-2.58327748 43.85006042 -3.21490647 33.83759314 -3.25 23.5625 C-3.25902344 22.47404785 -3.26804687 21.3855957 -3.27734375 20.26416016 C-3.21486351 3.21486351 -3.21486351 3.21486351 0 0 Z " fill="#A4A4A4" transform="translate(368,479)"/>
<path d="M0 0 C-3.1440966 1.72869368 -6.17800495 2.6579291 -9.65625 3.515625 C-10.76226562 3.79792969 -11.86828125 4.08023437 -13.0078125 4.37109375 C-15.30286241 4.94870698 -17.5997083 5.51923893 -19.8984375 6.08203125 C-33.8375234 9.54587012 -33.8375234 9.54587012 -45 18 C-45.34599608 21.37255128 -45.43637116 24.63552841 -45.43945312 28.01953125 C-45.57410787 33.0064002 -46.43367828 35.5090231 -50 39 C-52.03515625 40.6171875 -52.03515625 40.6171875 -54.0625 41.875 C-54.73410156 42.30554688 -55.40570313 42.73609375 -56.09765625 43.1796875 C-58 44 -58 44 -61 43 C-60.28972656 42.60167969 -59.57945312 42.20335937 -58.84765625 41.79296875 C-57.92855469 41.26316406 -57.00945312 40.73335938 -56.0625 40.1875 C-54.68771484 39.40439453 -54.68771484 39.40439453 -53.28515625 38.60546875 C-50.715938 37.13859013 -50.715938 37.13859013 -50 34 C-50.3306499 32.66599868 -50.66441108 31.33276741 -51 30 C-51.09285087 24.58369953 -50.59782111 19.82521501 -46.94140625 15.6484375 C-34.9800077 6.441893 -15.33831728 -0.78813488 0 0 Z " fill="#2E2E2E" transform="translate(326,379)"/>
<path d="M0 0 C0.625 1.875 0.625 1.875 1 4 C0.34 4.66 -0.32 5.32 -1 6 C-1 5.34 -1 4.68 -1 4 C-1.45375 4.495 -1.9075 4.99 -2.375 5.5 C-4 7 -4 7 -6 7 C-7.05798141 8.95319645 -7.95468386 10.85668772 -8.625 12.9765625 C-10.45519536 18.69592299 -10.45519536 18.69592299 -13.6875 20.5 C-14.8321875 20.7475 -14.8321875 20.7475 -16 21 C-16 20.01 -16 19.02 -16 18 C-15.34 18 -14.68 18 -14 18 C-14.02320313 17.10796875 -14.04640625 16.2159375 -14.0703125 15.296875 C-14.08835937 14.12640625 -14.10640625 12.9559375 -14.125 11.75 C-14.14820313 10.58984375 -14.17140625 9.4296875 -14.1953125 8.234375 C-14.0103949 5.17213954 -13.60823023 3.55797249 -12 1 C-11.67 1.99 -11.34 2.98 -11 4 C-7.13351728 2.95902388 -3.50538557 1.96301592 0 0 Z " fill="#AFAFAF" transform="translate(386,444)"/>
<path d="M0 0 C1.11503906 0.00644531 2.23007812 0.01289063 3.37890625 0.01953125 C4.53777344 0.03628906 5.69664062 0.05304688 6.890625 0.0703125 C8.65212891 0.08384766 8.65212891 0.08384766 10.44921875 0.09765625 C13.34656036 0.12121187 16.24348941 0.15410598 19.140625 0.1953125 C19.140625 0.5253125 19.140625 0.8553125 19.140625 1.1953125 C18.24138306 1.23289673 18.24138306 1.23289673 17.32397461 1.27124023 C14.57519176 1.38817023 11.82667125 1.51045197 9.078125 1.6328125 C8.13517578 1.67212891 7.19222656 1.71144531 6.22070312 1.75195312 C1.12947022 1.98256646 -3.83002256 2.3652252 -8.859375 3.1953125 C-6.23732646 8.53268404 -1.9936631 12.06347315 2.328125 16.0078125 C3.07771484 16.70068359 3.82730469 17.39355469 4.59960938 18.10742188 C6.44176967 19.80878011 8.28881413 21.50447334 10.140625 23.1953125 C9.480625 23.5253125 8.820625 23.8553125 8.140625 24.1953125 C7.150625 23.8653125 6.160625 23.5353125 5.140625 23.1953125 C5.470625 25.8353125 5.800625 28.4753125 6.140625 31.1953125 C4.58342538 28.85951307 3.35602843 26.70208207 2.140625 24.1953125 C1.810625 23.5559375 1.480625 22.9165625 1.140625 22.2578125 C0.140625 20.1953125 0.140625 20.1953125 -0.6640625 17.81640625 C-2.37845857 14.05706063 -5.12234679 11.95610608 -8.1796875 9.2578125 C-9.859375 7.1953125 -9.859375 7.1953125 -10.1015625 4.4453125 C-10.02164062 3.7028125 -9.94171875 2.9603125 -9.859375 2.1953125 C-6.48238712 0.15357715 -3.91391277 -0.03993789 0 0 Z " fill="#303030" transform="translate(355.859375,319.8046875)"/>
<path d="M0 0 C0.66 0.33 1.32 0.66 2 1 C-14.74570447 12 -14.74570447 12 -23 12 C-23 12.66 -23 13.32 -23 14 C-23.66 14 -24.32 14 -25 14 C-25 14.66 -25 15.32 -25 16 C-22.36 16.33 -19.72 16.66 -17 17 C-17 17.33 -17 17.66 -17 18 C-22.94 18 -28.88 18 -35 18 C-35.33 17.01 -35.66 16.02 -36 15 C-35.04222656 14.64808594 -34.08445312 14.29617188 -33.09765625 13.93359375 C-25.58026966 11.15354311 -18.1058543 8.28532924 -10.6875 5.25 C-9.60384155 4.80998657 -9.60384155 4.80998657 -8.49829102 4.36108398 C-5.44387691 3.10081518 -2.75898868 1.83932579 0 0 Z " fill="#6D6D6D" transform="translate(413,316)"/>
<path d="M0 0 C0.33 0.99 0.66 1.98 1 3 C0.67 3.66 0.34 4.32 0 5 C-0.66 5 -1.32 5 -2 5 C-2.33 5.99 -2.66 6.98 -3 8 C-3.66 8 -4.32 8 -5 8 C-5.04125 9.27875 -5.0825 10.5575 -5.125 11.875 C-5.7398058 17.82442847 -8.68773028 22.14808197 -12 27 C-15.32821753 22.0076737 -14.51014495 16.06526751 -13.546875 10.27734375 C-13.08008677 8.17346253 -12.54676158 6.08452853 -12 4 C-11.67 4 -11.34 4 -11 4 C-9.875 10.625 -9.875 10.625 -11 14 C-11.66 14 -12.32 14 -13 14 C-13 14.99 -13 15.98 -13 17 C-11.35 16.34 -9.7 15.68 -8 15 C-7.9175 13.948125 -7.835 12.89625 -7.75 11.8125 C-6.94347778 7.71267873 -5.92278322 5.92278322 -3 3 C-2.34 3 -1.68 3 -1 3 C-0.67 2.01 -0.34 1.02 0 0 Z " fill="#898989" transform="translate(383,448)"/>
<path d="M0 0 C3.75131012 1.76423001 7.23536211 3.93897248 10.75 6.125 C11.35199219 6.49753906 11.95398438 6.87007813 12.57421875 7.25390625 C14.05042343 8.16774724 15.52534154 9.08366598 17 10 C16.67 10.99 16.34 11.98 16 13 C14.68 12.01 13.36 11.02 12 10 C11.67 10.99 11.34 11.98 11 13 C8.08517222 13.80967438 6.53886783 14.21845993 3.6875 13.0625 C3.130625 12.711875 2.57375 12.36125 2 12 C2.2475 11.2575 2.495 10.515 2.75 9.75 C2.8325 8.8425 2.915 7.935 3 7 C1.16641665 4.66545339 1.16641665 4.66545339 -1 3 C-0.67 2.01 -0.34 1.02 0 0 Z " fill="#C4C4C4" transform="translate(201,272)"/>
<path d="M0 0 C0.33 0 0.66 0 1 0 C1.02578125 0.56847656 1.0515625 1.13695312 1.078125 1.72265625 C1.50935551 7.59327154 2.75915621 11.09243654 6 16 C6.70125 17.11375 7.4025 18.2275 8.125 19.375 C9.73573008 22.06281826 9.73573008 22.06281826 12 23 C12 23.66 12 24.32 12 25 C12.99 25.33 13.98 25.66 15 26 C15 26.66 15 27.32 15 28 C15.66 28.33 16.32 28.66 17 29 C11.11764549 28.70588227 7.14501737 25.98631175 3 22 C-0.91504474 15.53889675 -0.13455699 7.29597894 0 0 Z " fill="#3B3B3B" transform="translate(553,511)"/>
<path d="M0 0 C-0.9037893 10.70276807 -0.9037893 10.70276807 -3 15 C-4.65 15.66 -6.3 16.32 -8 17 C-8 13.37 -8 9.74 -8 6 C-9.98 6.66 -11.96 7.32 -14 8 C-14 7.34 -14 6.68 -14 6 C-11.85521084 4.99770632 -9.70925278 3.99807145 -7.5625 3 C-6.36753906 2.443125 -5.17257812 1.88625 -3.94140625 1.3125 C-1 0 -1 0 0 0 Z " fill="#505050" transform="translate(652,512)"/>
<path d="M0 0 C3.0646514 1.49510321 6.0262222 3.1247859 8.984375 4.8203125 C9.91894531 5.35527344 10.85351562 5.89023437 11.81640625 6.44140625 C13.26853516 7.27478516 13.26853516 7.27478516 14.75 8.125 C16.22533203 8.96998047 16.22533203 8.96998047 17.73046875 9.83203125 C20.15420383 11.22038435 22.57735783 12.60974097 25 14 C22 15 22 15 18.8125 13.5625 C17.884375 13.046875 16.95625 12.53125 16 12 C14.79371992 14.33214148 13.8345262 16.49642139 13 19 C8.94718288 17.77472971 5.55639236 16.30119506 2 14 C5 13 5 13 7.125 12.5625 C7.74375 12.376875 8.3625 12.19125 9 12 C9.33 11.34 9.66 10.68 10 10 C11.32 10.66 12.64 11.32 14 12 C14.33 11.34 14.66 10.68 15 10 C14.27296875 9.731875 13.5459375 9.46375 12.796875 9.1875 C10.0393304 8.01669894 7.73364414 6.66687526 5.25 5 C4.47140625 4.484375 3.6928125 3.96875 2.890625 3.4375 C1 2 1 2 0 0 Z " fill="#747474" transform="translate(203,272)"/>
<path d="M0 0 C-1.40862817 2.90813558 -2.8684262 5.55857337 -5 8 C-9.21745334 8.677805 -12.87270342 8.00055675 -17 7 C-17 6.34 -17 5.68 -17 5 C-16.34 5 -15.68 5 -15 5 C-15 4.34 -15 3.68 -15 3 C-13.4447088 2.29634398 -11.88035173 1.61270622 -10.3125 0.9375 C-9.44238281 0.55464844 -8.57226562 0.17179687 -7.67578125 -0.22265625 C-4.67786136 -1.0935848 -2.96719847 -0.85006226 0 0 Z " fill="#C3C3C3" transform="translate(405,325)"/>
<path d="M0 0 C0.99 0 1.98 0 3 0 C2.33828309 4.95793863 0.26347019 9.13299773 -1.8125 13.625 C-4.85404633 20.32047542 -7.66307228 27.01996588 -10 34 C-11.27847277 30.11309955 -10.37539551 27.98669318 -8.83203125 24.23046875 C-7.6920795 21.17454176 -7.06388914 18.07607337 -6.4296875 14.8828125 C-6 13 -6 13 -5 11 C-4.34 11 -3.68 11 -3 11 C-2.67 8.03 -2.34 5.06 -2 2 C-1.34 2 -0.68 2 0 2 C0 1.34 0 0.68 0 0 Z " fill="#484848" transform="translate(394,426)"/>
<path d="M0 0 C0.33 0 0.66 0 1 0 C1.33 2.64 1.66 5.28 2 8 C2.66 8 3.32 8 4 8 C3.84660156 9.22589844 3.69320313 10.45179688 3.53515625 11.71484375 C2.87540939 17.65256546 2.65692263 23.59492399 2.4375 29.5625 C2.39431641 30.66658203 2.35113281 31.77066406 2.30664062 32.90820312 C2.20155613 35.60537185 2.09940587 38.30261703 2 41 C1.67 41 1.34 41 1 41 C0.24290189 35.63482028 -0.13878201 30.42266242 -0.09765625 25 C-0.0962413 24.2788501 -0.09482635 23.5577002 -0.09336853 22.81469727 C-0.08783381 20.54308676 -0.07529423 18.27158 -0.0625 16 C-0.05747654 14.44661602 -0.05291512 12.89323048 -0.04882812 11.33984375 C-0.03788589 7.55985672 -0.0206676 3.77994586 0 0 Z " fill="#C9C9C9" transform="translate(366,492)"/>
<path d="M0 0 C8.13628568 3.95565963 15.58588523 8.58588523 22 15 C20.02 15.33 18.04 15.66 16 16 C16 14.68 16 13.36 16 12 C15.34 12 14.68 12 14 12 C13.57074219 11.50886719 13.14148438 11.01773437 12.69921875 10.51171875 C10.36630061 8.43622606 8.88107223 8.69294524 5.8125 8.8125 C4.91144531 8.83957031 4.01039063 8.86664063 3.08203125 8.89453125 C2.39496094 8.92933594 1.70789063 8.96414063 1 9 C1.020625 7.88625 1.04125 6.7725 1.0625 5.625 C1.26380718 2.16784079 1.26380718 2.16784079 0 0 Z " fill="#BDBDBD" transform="translate(575,399)"/>
<path d="M0 0 C3.25154414 3.25154414 3.09888262 7.07296401 3.3125 11.5 C3.25519778 14.64641306 3.0460761 15.91552716 1.5 18.75 C-1.68819238 21.61937314 -5.03765123 24.29138965 -9 26 C-9.99 25.67 -10.98 25.34 -12 25 C-11.28972656 24.60167969 -10.57945312 24.20335937 -9.84765625 23.79296875 C-8.92855469 23.26316406 -8.00945312 22.73335938 -7.0625 22.1875 C-6.14597656 21.66542969 -5.22945313 21.14335937 -4.28515625 20.60546875 C-1.715938 19.13859013 -1.715938 19.13859013 -1 16 C-1.16371094 15.40703125 -1.32742188 14.8140625 -1.49609375 14.203125 C-2.18649665 11.18461929 -1.62262759 8.78127873 -1.0625 5.75 C-0.86785156 4.67234375 -0.67320312 3.5946875 -0.47265625 2.484375 C-0.31667969 1.66453125 -0.16070312 0.8446875 0 0 Z " fill="#7B7B7B" transform="translate(277,397)"/>
<path d="M0 0 C0.99 0.495 0.99 0.495 2 1 C2.226875 1.721875 2.45375 2.44375 2.6875 3.1875 C4.74919863 7.60542564 8.64609773 10.82304886 13 13 C14.54023996 13.06950541 16.08334988 13.08452357 17.625 13.0625 C18.44226563 13.05347656 19.25953125 13.04445313 20.1015625 13.03515625 C20.72804688 13.02355469 21.35453125 13.01195312 22 13 C20.88671875 14.48828125 20.88671875 14.48828125 19 16 C16.08203125 16.29296875 16.08203125 16.29296875 12.8125 16.1875 C11.72582031 16.16042969 10.63914062 16.13335937 9.51953125 16.10546875 C8.27236328 16.05326172 8.27236328 16.05326172 7 16 C6.67 15.01 6.34 14.02 6 13 C5.34 12.67 4.68 12.34 4 12 C3.67 11.01 3.34 10.02 3 9 C2.2265625 8.3503125 2.2265625 8.3503125 1.4375 7.6875 C-0.66941181 5.21416874 -0.20908421 3.1362632 0 0 Z " fill="#8D8D8D" transform="translate(260,335)"/>
<path d="M0 0 C0.33 0 0.66 0 1 0 C1.04975174 4.28668688 1.0858847 8.57321697 1.10986328 12.86010742 C1.1198685 14.31586641 1.13347696 15.77160557 1.15087891 17.22729492 C1.17537044 19.3299654 1.18653794 21.43236824 1.1953125 23.53515625 C1.20578613 24.797229 1.21625977 26.05930176 1.22705078 27.35961914 C0.9838477 31.25897529 0.20377453 34.30328756 -1 38 C-2.0098993 34.85809106 -1.81286843 33.14410689 -1 30 C-0.86070644 28.63323368 -0.75634699 27.2625433 -0.68359375 25.890625 C-0.64169922 25.13652344 -0.59980469 24.38242187 -0.55664062 23.60546875 C-0.51732422 22.82816406 -0.47800781 22.05085937 -0.4375 21.25 C-0.39431641 20.45722656 -0.35113281 19.66445313 -0.30664062 18.84765625 C-0.20097009 16.89862185 -0.10002034 14.94933252 0 13 C-1.97536745 13.34786708 -1.97536745 13.34786708 -4 14 C-4.33 14.66 -4.66 15.32 -5 16 C-4.34309381 12.21760329 -3.279869 8.78158474 -1.9375 5.1875 C-1.57527344 4.21167969 -1.21304688 3.23585938 -0.83984375 2.23046875 C-0.42412109 1.12638672 -0.42412109 1.12638672 0 0 Z " fill="#7B7B7B" transform="translate(528,538)"/>
<path d="M0 0 C7.32053901 6.71694277 9.79630623 16.93820061 12.88671875 26.12890625 C13.80751758 29.07661105 13.80751758 29.07661105 16 31 C16 32.32 16 33.64 16 35 C15.34 35 14.68 35 14 35 C14 37.64 14 40.28 14 43 C13.67 43 13.34 43 13 43 C12.88785156 41.79730469 12.88785156 41.79730469 12.7734375 40.5703125 C11.28663806 27.71387024 7.84931206 14.57249458 0.8828125 3.53125 C0 2 0 2 0 0 Z " fill="#262626" transform="translate(539,467)"/>
<path d="M0 0 C0 2.31 0 4.62 0 7 C-8.42857143 9.28571429 -8.42857143 9.28571429 -13 9 C-11.0649353 3.1948059 -5.82945544 0 0 0 Z " fill="#B7B7B7" transform="translate(454,619)"/>
<path d="M0 0 C3.05675241 4.58512862 3.11219208 7.77106324 3.0625 13.1875 C3.05347656 14.45980469 3.04445313 15.73210937 3.03515625 17.04296875 C3.02355469 18.01878906 3.01195312 18.99460937 3 20 C1.68 20 0.36 20 -1 20 C-1.33 20.99 -1.66 21.98 -2 23 C-2.17540687 12.96282901 -2.17540687 12.96282901 -1 8 C-0.62890019 5.33710809 -0.31679373 2.67011859 0 0 Z " fill="#797979" transform="translate(521,472)"/>
<path d="M0 0 C0.66 0.33 1.32 0.66 2 1 C-0.47043364 4.82917214 -0.47043364 4.82917214 -2.9375 5.625 C-3.618125 5.74875 -4.29875 5.8725 -5 6 C-5.680625 6.350625 -6.36125 6.70125 -7.0625 7.0625 C-9 8 -9 8 -12 8 C-12.33 9.65 -12.66 11.3 -13 13 C-12.01 13.33 -11.02 13.66 -10 14 C-14.455 14.495 -14.455 14.495 -19 15 C-19 13.68 -19 12.36 -19 11 C-18.04738281 10.45730469 -17.09476562 9.91460937 -16.11328125 9.35546875 C-14.84633756 8.63284161 -13.57941141 7.91018373 -12.3125 7.1875 C-11.68666016 6.83107422 -11.06082031 6.47464844 -10.41601562 6.10742188 C-9.80048828 5.75615234 -9.18496094 5.40488281 -8.55078125 5.04296875 C-7.94572754 4.69927246 -7.34067383 4.35557617 -6.71728516 4.00146484 C-5.17520102 3.10217153 -3.66872154 2.14247304 -2.16796875 1.17578125 C-1.45253906 0.78777344 -0.73710937 0.39976562 0 0 Z " fill="#949494" transform="translate(393,276)"/>
<path d="M0 0 C3.0625 0.25 3.0625 0.25 6 1 C6.33 1.66 6.66 2.32 7 3 C5.52830189 6.73584906 5.52830189 6.73584906 3 8 C2.34786708 10.02463255 2.34786708 10.02463255 2 12 C0.68 11.34 -0.64 10.68 -2 10 C-2.1953125 3.9453125 -2.1953125 3.9453125 -2 2 C-1.34 1.34 -0.68 0.68 0 0 Z " fill="#C8C8C8" transform="translate(824,586)"/>
<path d="M0 0 C2.46800047 1.15173355 4.04783565 2.04783565 6 4 C6.66 4.33 7.32 4.66 8 5 C6.37982158 6.33918806 4.75370657 7.6711969 3.125 9 C1.76761719 10.11375 1.76761719 10.11375 0.3828125 11.25 C-2 13 -2 13 -4 13 C-3.40895235 8.15340923 -2.02055843 4.39251833 0 0 Z " fill="#969696" transform="translate(425,416)"/>
<path d="M0 0 C10.56 0 21.12 0 32 0 C32 0.33 32 0.66 32 1 C24.74 1 17.48 1 10 1 C9.67 2.65 9.34 4.3 9 6 C5.59687262 4.94124926 2.98646769 3.99097846 0 2 C0 1.34 0 0.68 0 0 Z " fill="#949494" transform="translate(295,174)"/>
<path d="M0 0 C2.5 1.25 2.5 1.25 4.5 4.25 C4.5 5.57 4.5 6.89 4.5 8.25 C3.18 8.58 1.86 8.91 0.5 9.25 C0.5 8.59 0.5 7.93 0.5 7.25 C-0.82 7.25 -2.14 7.25 -3.5 7.25 C-3.5 6.59 -3.5 5.93 -3.5 5.25 C-4.16 4.92 -4.82 4.59 -5.5 4.25 C-5.125 2.3125 -5.125 2.3125 -4.5 0.25 C-2.5 -0.75 -2.5 -0.75 0 0 Z " fill="#949494" transform="translate(359.5,584.75)"/>
<path d="M0 0 C0.33 0 0.66 0 1 0 C1.33 2.97 1.66 5.94 2 9 C2.33 7.35 2.66 5.7 3 4 C3.66 4 4.32 4 5 4 C5.10152799 10.7685324 5.03026944 17.30324864 4 24 C3.34 24 2.68 24 2 24 C-0.52427653 16.42717042 -0.15440748 7.90909406 0 0 Z " fill="#444444" transform="translate(365,516)"/>
<path d="M0 0 C4.75 0.75 4.75 0.75 7 3 C6.01 3.495 6.01 3.495 5 4 C5 5.98 5 7.96 5 10 C1.40608886 8.66511872 -1.75490696 7.03977277 -5 5 C-4.34 4.67 -3.68 4.34 -3 4 C-2.67 3.34 -2.34 2.68 -2 2 C-1.34 2.33 -0.68 2.66 0 3 C0 2.01 0 1.02 0 0 Z " fill="#A6A6A6" transform="translate(343,194)"/>
<path d="M0 0 C4.90779275 4.03529626 9.39408053 8.35217458 13.85595703 12.87548828 C17.73740855 16.7892068 21.7799218 20.45706902 26 24 C22.0369954 24 21.24396239 22.72653651 18.375 20.0625 C17.49457031 19.24910156 16.61414063 18.43570312 15.70703125 17.59765625 C12.3632883 14.38901402 9.11344498 11.09862851 5.91015625 7.75 C4.02099618 5.78050632 4.02099618 5.78050632 1 5 C0.67 3.35 0.34 1.7 0 0 Z " fill="#3C3C3C" transform="translate(535,363)"/>
<path d="M0 0 C0.99 0.33 1.98 0.66 3 1 C3.984375 3.58203125 3.984375 3.58203125 4.75 6.8125 C5.14445312 8.39998047 5.14445312 8.39998047 5.546875 10.01953125 C6 13 6 13 5 17 C3.68 14.36 2.36 11.72 1 9 C0.01 9 -0.98 9 -2 9 C-1.125 2.25 -1.125 2.25 0 0 Z " fill="#747474" transform="translate(294,540)"/>
<path d="M0 0 C2 1 2 1 3.625 4.4375 C6.23651818 9.92966228 10.0984907 14.37879481 14 19 C13.01 19 12.02 19 11 19 C11 18.34 11 17.68 11 17 C9.68 17.33 8.36 17.66 7 18 C6.67 16.68 6.34 15.36 6 14 C5.34 14 4.68 14 4 14 C3.32968281 12.0429132 2.66385317 10.08428887 2 8.125 C1.62875 7.03445313 1.2575 5.94390625 0.875 4.8203125 C0 2 0 2 0 0 Z " fill="#3C3C3C" transform="translate(420,508)"/>
<path d="M0 0 C1.60741459 2.41112189 2.95965537 4.76104385 4.3125 7.3125 C8.35198455 14.58122366 13.69020199 19.70791134 20 25 C19.34 25.66 18.68 26.32 18 27 C16.9790625 25.700625 16.9790625 25.700625 15.9375 24.375 C13.98565046 22.00410931 11.98300474 20.1326148 9.5625 18.25 C5.24918762 14.66503204 2.22218824 10.13626658 0 5 C-0.16015625 2.19140625 -0.16015625 2.19140625 0 0 Z " fill="#2F2F2F" transform="translate(620,220)"/>
<path d="M0 0 C0.33 0.99 0.66 1.98 1 3 C0.01 4.485 0.01 4.485 -1 6 C-1 6.66 -1 7.32 -1 8 C-2.38883608 8.94847342 -3.78371987 9.88924766 -5.20703125 10.78515625 C-7.82057977 12.55599196 -10.12863663 14.63471052 -12.484375 16.73046875 C-14 18 -14 18 -16 19 C-14.4106983 15.01263951 -11.60297545 12.40965969 -8.5625 9.5 C-5.45238748 6.50023313 -2.47818873 3.56187125 0 0 Z " fill="#6E6E6E" transform="translate(229,347)"/>
<path d="M0 0 C0.66 0 1.32 0 2 0 C2.39832031 1.09699219 2.79664063 2.19398438 3.20703125 3.32421875 C3.74192112 4.77874382 4.27709225 6.23316548 4.8125 7.6875 C5.20405273 8.7693457 5.20405273 8.7693457 5.60351562 9.87304688 C6.79685578 13.09948507 7.96507921 15.9426246 9.76171875 18.89453125 C10.17035156 19.58933594 10.57898438 20.28414062 11 21 C10.67 21.66 10.34 22.32 10 23 C6.44992282 19.0949151 5.18180084 16.02265357 4 11 C3.34 11 2.68 11 2 11 C1.67 9.02 1.34 7.04 1 5 C0.01 5.66 -0.98 6.32 -2 7 C-1.34 4.69 -0.68 2.38 0 0 Z " fill="#545454" transform="translate(168,189)"/>
<path d="M0 0 C0.33 0 0.66 0 1 0 C2.125 6.625 2.125 6.625 1 10 C0.34 10 -0.32 10 -1 10 C-1 10.99 -1 11.98 -1 13 C0.65 12.34 2.3 11.68 4 11 C3.67 12.32 3.34 13.64 3 15 C2.34 15 1.68 15 1 15 C0.67 16.65 0.34 18.3 0 20 C-0.66 20 -1.32 20 -2 20 C-2.23668569 12.96517526 -1.7879537 6.8165735 0 0 Z " fill="#9F9F9F" transform="translate(371,452)"/>
<path d="M0 0 C2.33944736 0.28730055 4.6739143 0.61936779 7 1 C5.02 1.99 5.02 1.99 3 3 C3.66 3.66 4.32 4.32 5 5 C4.34 6.98 3.68 8.96 3 11 C1 9.375 1 9.375 -1 7 C-1.3125 3.8125 -1.3125 3.8125 -1 1 C-0.67 0.67 -0.34 0.34 0 0 Z " fill="#A1A1A1" transform="translate(651,295)"/>
<path d="M0 0 C0.99 0 1.98 0 3 0 C2.67 3.96 2.34 7.92 2 12 C0.68 12.33 -0.64 12.66 -2 13 C-1.85966889 11.02043559 -1.7125877 9.04134859 -1.5625 7.0625 C-1.48128906 5.96035156 -1.40007812 4.85820312 -1.31640625 3.72265625 C-1 1 -1 1 0 0 Z " fill="#D2D2D2" transform="translate(166,200)"/>
<path d="M0 0 C0.33 0 0.66 0 1 0 C2.32594359 5.96674616 2.0884587 11.92583615 2 18 C1.34 16.68 0.68 15.36 0 14 C-0.33 16.64 -0.66 19.28 -1 22 C-1.33 22 -1.66 22 -2 22 C-2.25515919 14.47280398 -1.28297723 7.41148455 0 0 Z " fill="#7C7C7C" transform="translate(368,466)"/>
<path d="M0 0 C4.85963179 0.60745397 8.7405518 2.72758967 13 5 C13 5.66 13 6.32 13 7 C14.65 7.33 16.3 7.66 18 8 C18.33 8.99 18.66 9.98 19 11 C14.60616294 9.40376856 10.71004193 7.21975667 6.6875 4.875 C6.04232422 4.50246094 5.39714844 4.12992188 4.73242188 3.74609375 C3.15324055 2.83367787 1.57638136 1.91724491 0 1 C0 0.67 0 0.34 0 0 Z " fill="#4B4B4B" transform="translate(736,575)"/>
<path d="M0 0 C0.99 0.33 1.98 0.66 3 1 C2.25 5.75 2.25 5.75 0 8 C-3.125 7.625 -3.125 7.625 -6 7 C-5.34 6.67 -4.68 6.34 -4 6 C-3.34786708 3.97536745 -3.34786708 3.97536745 -3 2 C-2.01 2 -1.02 2 0 2 C0 1.34 0 0.68 0 0 Z " fill="#878787" transform="translate(231,289)"/>
<path d="M0 0 C2.64 0.66 5.28 1.32 8 2 C5.15314251 4.31966166 2.5236125 5.91581154 -1 7 C-1.99 6.67 -2.98 6.34 -4 6 C-4 5.34 -4 4.68 -4 4 C-3.34 4 -2.68 4 -2 4 C-1.34 2.68 -0.68 1.36 0 0 Z " fill="#9A9A9A" transform="translate(405,325)"/>
<path d="M0 0 C1.96080624 0.78552177 3.91857816 1.57862123 5.875 2.375 C6.96554687 2.81585938 8.05609375 3.25671875 9.1796875 3.7109375 C12 5 12 5 14 7 C11.8125 7.75 11.8125 7.75 9 8 C7.30824337 6.69864875 5.64295195 5.36244796 4 4 C0.81237891 3.20309162 0.81237891 3.20309162 -2 3 C-1.34 2.01 -0.68 1.02 0 0 Z " fill="#BDBDBD" transform="translate(602,416)"/>
<path d="M0 0 C0.66 0 1.32 0 2 0 C1.25166929 8.36948823 0.14302815 16.6769795 -1 25 C-1.33 25 -1.66 25 -2 25 C-1.8608331 21.58302762 -1.71250415 18.16651243 -1.5625 14.75 C-1.52318359 13.78191406 -1.48386719 12.81382812 -1.44335938 11.81640625 C-1.40146484 10.88183594 -1.35957031 9.94726562 -1.31640625 8.984375 C-1.27974854 8.12553711 -1.24309082 7.26669922 -1.20532227 6.38183594 C-1.01296486 4.15039857 -0.61153756 2.15017476 0 0 Z " fill="#202020" transform="translate(372,494)"/>
<path d="M0 0 C1.13199353 0.9080162 2.25532363 1.82683826 3.375 2.75 C4.00148438 3.26046875 4.62796875 3.7709375 5.2734375 4.296875 C7.08312318 6.08199481 8.00117455 7.67949644 9 10 C4.25 10.125 4.25 10.125 2 9 C2 8.34 2 7.68 2 7 C1.34 7 0.68 7 0 7 C0 6.34 0 5.68 0 5 C0.66 4.67 1.32 4.34 2 4 C1.34 2.68 0.68 1.36 0 0 Z " fill="#848484" transform="translate(498,322)"/>
<path d="M0 0 C1.65 0 3.3 0 5 0 C4.01 0.66 3.02 1.32 2 2 C1.17533 7.65488002 2.85017302 11.70542701 5.125 16.86328125 C6 19 6 19 6 21 C3 20 3 20 2.05078125 18.3203125 C-0.03641705 12.11393447 -0.32895484 6.51817931 0 0 Z " fill="#2E2E2E" transform="translate(613,253)"/>
<path d="M0 0 C8.25 0.66 16.5 1.32 25 2 C25 2.33 25 2.66 25 3 C16.42 3 7.84 3 -1 3 C-0.67 2.01 -0.34 1.02 0 0 Z " fill="#656565" transform="translate(560,760)"/>
<path d="M0 0 C2.35171131 0.59861742 4.6859378 1.26924352 7 2 C7.33 2.66 7.66 3.32 8 4 C8.99 4.33 9.98 4.66 11 5 C11 4.34 11 3.68 11 3 C12.65 2.67 14.3 2.34 16 2 C14.68 3.65 13.36 5.3 12 7 C6.376883 6.59834879 3.95408944 4.76579946 0 1 C0 0.67 0 0.34 0 0 Z " fill="#757575" transform="translate(791,463)"/>
<path d="M0 0 C1.32 0.33 2.64 0.66 4 1 C4.08733513 4.08315385 4.14050127 7.16598827 4.1875 10.25 C4.21263672 11.12269531 4.23777344 11.99539063 4.26367188 12.89453125 C4.27333984 13.73886719 4.28300781 14.58320313 4.29296875 15.453125 C4.3086792 16.22817383 4.32438965 17.00322266 4.34057617 17.80175781 C4 20 4 20 1 24 C1.33 16.41 1.66 8.82 2 1 C1.34 0.67 0.68 0.34 0 0 Z " fill="#3E3E3E" transform="translate(440,347)"/>
<path d="M0 0 C4.33333333 4.33333333 8.66666667 8.66666667 13 13 C9.42808296 13 9.02077328 12.41190492 6.5 10.0625 C4.19604302 7.92527675 3.05243655 7.01747885 0 6 C0 4.02 0 2.04 0 0 Z " fill="#626262" transform="translate(183,218)"/>
<path d="M0 0 C0.33 0 0.66 0 1 0 C1.02578125 0.56847656 1.0515625 1.13695312 1.078125 1.72265625 C1.50884863 7.58637117 2.88972832 11.04300451 6 16 C6.75 18.4375 6.75 18.4375 7 20 C2.74828275 17.09093031 1.03309788 15.0715714 0 10 C-0.14505438 6.65874733 -0.11887211 3.34162718 0 0 Z " fill="#3F3F3F" transform="translate(553,511)"/>
<path d="M0 0 C0.33 0 0.66 0 1 0 C1.33 8.25 1.66 16.5 2 25 C0.68 24.34 -0.64 23.68 -2 23 C-1.34 22.67 -0.68 22.34 0 22 C0 14.74 0 7.48 0 0 Z " fill="#252525" transform="translate(415,496)"/>
<path d="M0 0 C0.99 0.33 1.98 0.66 3 1 C3 1.99 3 2.98 3 4 C6.63 4 10.26 4 14 4 C14 4.66 14 5.32 14 6 C12.04233719 6.08082094 10.08373272 6.13910778 8.125 6.1875 C6.48917969 6.23970703 6.48917969 6.23970703 4.8203125 6.29296875 C3.88960938 6.19628906 2.95890625 6.09960938 2 6 C0 3 0 3 0 0 Z " fill="#BEBEBE" transform="translate(264,347)"/>
<path d="M0 0 C0.33 0 0.66 0 1 0 C1 4.62 1 9.24 1 14 C-2 13 -2 13 -3.25 11.125 C-4 9 -4 9 -3 6 C-2.34 6 -1.68 6 -1 6 C-0.67 4.02 -0.34 2.04 0 0 Z " fill="#888888" transform="translate(414,504)"/>
<path d="M0 0 C2.96968084 4.45452125 2.34903947 8.90576317 1.5 14 C1.335 14.66 1.17 15.32 1 16 C0.34 16 -0.32 16 -1 16 C-1.33 16.66 -1.66 17.32 -2 18 C-1.85970581 15.8537974 -1.71261836 13.70803782 -1.5625 11.5625 C-1.48128906 10.36753906 -1.40007813 9.17257812 -1.31640625 7.94140625 C-1 5 -1 5 0 4 C0 2.68 0 1.36 0 0 Z " fill="#969696" transform="translate(521,472)"/>
<path d="M0 0 C7.84179688 6.4453125 7.84179688 6.4453125 10 10 C10 10.66 10 11.32 10 12 C7.69 12 5.38 12 3 12 C3.66 10.35 4.32 8.7 5 7 C4.175 6.21625 3.35 5.4325 2.5 4.625 C0 2 0 2 0 0 Z " fill="#606060" transform="translate(622,278)"/>
<path d="M0 0 C2 3 2 3 1.6796875 5.2265625 C1.41414063 6.01804687 1.14859375 6.80953125 0.875 7.625 C0.62492187 8.42164063 0.37484375 9.21828125 0.1171875 10.0390625 C-1 12 -1 12 -3.1171875 12.7734375 C-3.73851562 12.84820312 -4.35984375 12.92296875 -5 13 C-4.125 7.25 -4.125 7.25 -3 5 C-2.34 5 -1.68 5 -1 5 C-0.67 3.35 -0.34 1.7 0 0 Z " fill="#757575" transform="translate(384,448)"/>
<path d="M0 0 C0.99 0 1.98 0 3 0 C2.44739574 3.31562557 1.83174295 6.15062207 0 9 C-0.99 9.33 -1.98 9.66 -3 10 C-2.67 7.36 -2.34 4.72 -2 2 C-1.34 2 -0.68 2 0 2 C0 1.34 0 0.68 0 0 Z " fill="#787878" transform="translate(394,426)"/>
<path d="M0 0 C1.32 0.66 2.64 1.32 4 2 C0.91702073 5.25914951 -1.9161331 8.06553673 -6 10 C-6.99 9.67 -7.98 9.34 -9 9 C-8.360625 8.71125 -7.72125 8.4225 -7.0625 8.125 C-4.84793921 7.17176549 -4.84793921 7.17176549 -4 5 C-3.01 5 -2.02 5 -1 5 C-0.67 3.35 -0.34 1.7 0 0 Z " fill="#838383" transform="translate(421,317)"/>
<path d="M0 0 C0.66 0.66 1.32 1.32 2 2 C1.34 2 0.68 2 0 2 C-0.33 2.66 -0.66 3.32 -1 4 C-2.875 6.125 -2.875 6.125 -5 8 C-5.99 8 -6.98 8 -8 8 C-7.9375 5.6875 -7.9375 5.6875 -7 3 C-3.4375 1.1875 -3.4375 1.1875 0 0 Z " fill="#D4D4D4" transform="translate(388,281)"/>
<path d="M0 0 C0.66 0.33 1.32 0.66 2 1 C1.401875 2.010625 0.80375 3.02125 0.1875 4.0625 C-1.84675778 7.60978225 -3.45554069 11.21607469 -5 15 C-5.66 15 -6.32 15 -7 15 C-7 14.01 -7 13.02 -7 12 C-6.34 12 -5.68 12 -5 12 C-5.1546875 10.4221875 -5.1546875 10.4221875 -5.3125 8.8125 C-5 5 -5 5 -2.5 2.0625 C-1.675 1.381875 -0.85 0.70125 0 0 Z " fill="#BABABA" transform="translate(377,450)"/>
<path d="M0 0 C0.66 0.99 1.32 1.98 2 3 C4.05925139 3.72382467 4.05925139 3.72382467 6 4 C5.34 4 4.68 4 4 4 C3.71125 4.5775 3.4225 5.155 3.125 5.75 C2.08333333 7.83333333 1.04166667 9.91666667 0 12 C-1.31157516 9.37684968 -0.89649988 7.76966564 -0.5625 4.875 C-0.46066406 3.96492188 -0.35882813 3.05484375 -0.25390625 2.1171875 C-0.17011719 1.41851562 -0.08632813 0.71984375 0 0 Z " fill="#A2A2A2" transform="translate(373,445)"/>
<path d="M0 0 C0.66 0.33 1.32 0.66 2 1 C0.63016497 4.16115776 0.0109362 4.9927092 -3 7 C-3.474375 7.845625 -3.94875 8.69125 -4.4375 9.5625 C-6 12 -6 12 -8.09765625 12.65234375 C-9.03931641 12.82443359 -9.03931641 12.82443359 -10 13 C-6.73279209 8.61105071 -3.45101522 4.24740335 0 0 Z " fill="#868686" transform="translate(319,320)"/>
<path d="M0 0 C0.66 0.33 1.32 0.66 2 1 C-0.48285322 4.8484225 -0.48285322 4.8484225 -2.8125 5.53125 C-3.8953125 5.76328125 -3.8953125 5.76328125 -5 6 C-6.5877111 6.50733153 -8.17107494 7.02845182 -9.75 7.5625 C-10.94882812 7.96662109 -10.94882812 7.96662109 -12.171875 8.37890625 C-12.77515625 8.58386719 -13.3784375 8.78882813 -14 9 C-11.50175511 6.18841591 -8.721524 4.55162169 -5.4375 2.75 C-4.46683594 2.20859375 -3.49617188 1.6671875 -2.49609375 1.109375 C-1.67238281 0.74328125 -0.84867187 0.3771875 0 0 Z " fill="#4C4C4C" transform="translate(393,276)"/>
<path d="M0 0 C3.82669043 3.42388092 5.72278474 6.00724943 7 11 C3.17131081 9.54773858 1.7461047 7.66681987 0 4 C0 2.68 0 1.36 0 0 Z " fill="#2C2C2C" transform="translate(554,525)"/>
<path d="M0 0 C0.33 0.66 0.66 1.32 1 2 C0.67 2.99 0.34 3.98 0 5 C0.33 5.66 0.66 6.32 1 7 C-3.31392226 6.5206753 -5.16569547 5.2542015 -8 2 C-6.8553125 2.061875 -6.8553125 2.061875 -5.6875 2.125 C-2.77281584 2.22080824 -2.77281584 2.22080824 0 0 Z " fill="#9E9E9E" transform="translate(204,277)"/>
<path d="M0 0 C0.33 0 0.66 0 1 0 C1.33848652 1.89492006 1.67056911 3.79098466 2 5.6875 C2.185625 6.74324219 2.37125 7.79898437 2.5625 8.88671875 C2.95068074 11.64904062 3.08259976 14.21742043 3 17 C0.02146748 13.69318835 -0.47159159 11.20814046 -0.75 6.8125 C-0.82734375 5.74644531 -0.9046875 4.68039062 -0.984375 3.58203125 C-0.98953125 2.72996094 -0.9946875 1.87789063 -1 1 C-0.67 0.67 -0.34 0.34 0 0 Z " fill="#9D9D9D" transform="translate(368,479)"/>
<path d="M0 0 C0.33 0.99 0.66 1.98 1 3 C0.67 3.66 0.34 4.32 0 5 C-0.66 5 -1.32 5 -2 5 C-2.33 5.99 -2.66 6.98 -3 8 C-3.66 8 -4.32 8 -5 8 C-5.66 9.98 -6.32 11.96 -7 14 C-7.33 13.01 -7.66 12.02 -8 11 C-6.6875 8.5 -6.6875 8.5 -5 6 C-4.34 5.01 -3.68 4.02 -3 3 C-2.34 3 -1.68 3 -1 3 C-0.67 2.01 -0.34 1.02 0 0 Z " fill="#969696" transform="translate(383,448)"/>
<path d="M0 0 C1.65 0.33 3.3 0.66 5 1 C5 2.65 5 4.3 5 6 C1.17902761 5.46930939 -1.06171403 4.50298434 -4 2 C-2.68 2 -1.36 2 0 2 C0 1.34 0 0.68 0 0 Z " fill="#929292" transform="translate(220,289)"/>
<path d="M0 0 C3.3 0.33 6.6 0.66 10 1 C6.39948847 3.40034102 3.03855465 5.32187705 -1.375 4.625 C-1.91125 4.41875 -2.4475 4.2125 -3 4 C-2.34 4 -1.68 4 -1 4 C-0.67 2.68 -0.34 1.36 0 0 Z " fill="#999999" transform="translate(386,284)"/>
<path d="M0 0 C0.33 0 0.66 0 1 0 C1.22354724 2.37443423 1.429163 4.74825095 1.625 7.125 C1.68945312 7.79015625 1.75390625 8.4553125 1.8203125 9.140625 C2.16909098 13.58755057 1.68247185 16.87730181 0 21 C-0.33 21 -0.66 21 -1 21 C-0.67 14.07 -0.34 7.14 0 0 Z " fill="#BBBBBB" transform="translate(797,542)"/>
<path d="M0 0 C0.33 0.66 0.66 1.32 1 2 C-0.21484375 4.8203125 -0.21484375 4.8203125 -1.9375 8.125 C-2.50339844 9.22070312 -3.06929687 10.31640625 -3.65234375 11.4453125 C-4.09707031 12.28835938 -4.54179688 13.13140625 -5 14 C-6.231394 10.30581799 -5.64432764 7.7943739 -5 4 C-4.01 3.67 -3.02 3.34 -2 3 C-1.34 2.01 -0.68 1.02 0 0 Z " fill="#515151" transform="translate(666,472)"/>
<path d="M0 0 C0.99 0.33 1.98 0.66 3 1 C3 1.66 3 2.32 3 3 C2.34 3 1.68 3 1 3 C1 9.6 1 16.2 1 23 C0.67 23 0.34 23 0 23 C0 15.41 0 7.82 0 0 Z " fill="#6A6A6A" transform="translate(293,437)"/>
<path d="M0 0 C4.45551924 1.21514161 6.95743587 2.52278385 10 6 C10.66 6.66 11.32 7.32 12 8 C10.02 8.33 8.04 8.66 6 9 C6 7.68 6 6.36 6 5 C5.34 5 4.68 5 4 5 C2.61767557 3.37373596 1.28062485 1.7074998 0 0 Z " fill="#888888" transform="translate(585,406)"/>
<path d="M0 0 C0.969375 0.66 1.93875 1.32 2.9375 2 C7.25589579 4.51316476 11.12632275 4.3978512 16 4 C15.67 4.66 15.34 5.32 15 6 C10.71 6 6.42 6 2 6 C1.34 4.02 0.68 2.04 0 0 Z " fill="#333333" transform="translate(266,344)"/>
<path d="M0 0 C1.32 0.33 2.64 0.66 4 1 C4 1.99 4 2.98 4 4 C3.01 4.33 2.02 4.66 1 5 C0.67 5.99 0.34 6.98 0 8 C-0.99 7.67 -1.98 7.34 -3 7 C-2.01 4.69 -1.02 2.38 0 0 Z " fill="#AFAFAF" transform="translate(227,287)"/>
<path d="M0 0 C0.33 0 0.66 0 1 0 C1 2.97 1 5.94 1 9 C-0.65 9 -2.3 9 -4 9 C-3.47181039 5.19703482 -2.56226812 2.88255163 0 0 Z " fill="#C0C0C0" transform="translate(169,192)"/>
<path d="M0 0 C0.99 0 1.98 0 3 0 C2.67 7.26 2.34 14.52 2 22 C1.67 22 1.34 22 1 22 C0.67 14.74 0.34 7.48 0 0 Z " fill="#2D2D2D" transform="translate(618,198)"/>
<path d="M0 0 C-1.24976756 3.65316671 -1.67098753 4.78065836 -5 7 C-5.33 6.34 -5.66 5.68 -6 5 C-6.66 4.67 -7.32 4.34 -8 4 C-3.375 0 -3.375 0 0 0 Z " fill="#424242" transform="translate(306,676)"/>
<path d="M0 0 C0.33 0 0.66 0 1 0 C1.3077917 3.13837611 1.27813784 4.59343628 -0.53125 7.23828125 C-1.1809375 7.92277344 -1.830625 8.60726562 -2.5 9.3125 C-3.1496875 10.00988281 -3.799375 10.70726562 -4.46875 11.42578125 C-4.9740625 11.94527344 -5.479375 12.46476563 -6 13 C-6 9.34899606 -4.9552415 7.89878202 -3.0625 4.8125 C-2.51722656 3.91144531 -1.97195313 3.01039063 -1.41015625 2.08203125 C-0.71212891 1.05142578 -0.71212891 1.05142578 0 0 Z " fill="#757575" transform="translate(597,671)"/>
<path d="M0 0 C-2.52986895 2.52986895 -4.53891316 3.16933916 -8 4 C-10.375 3.125 -10.375 3.125 -12 2 C-10.75579353 1.4654744 -9.50429064 0.94791389 -8.25 0.4375 C-7.55390625 0.14746094 -6.8578125 -0.14257812 -6.140625 -0.44140625 C-3.69987216 -1.07831803 -2.3596345 -0.80248831 0 0 Z " fill="#515151" transform="translate(637,521)"/>
<path d="M0 0 C0.66 0 1.32 0 2 0 C2.33 2.31 2.66 4.62 3 7 C3.99 7.33 4.98 7.66 6 8 C5.67 8.99 5.34 9.98 5 11 C1.78512442 8.85674962 0.64076492 7.44560634 -1 4 C-0.6875 1.6875 -0.6875 1.6875 0 0 Z " fill="#BFBFBF" transform="translate(258,336)"/>
<path d="M0 0 C0 3.10551666 -0.5393715 4.35261084 -2 7 C-1.01 7.33 -0.02 7.66 1 8 C-1.97 8.66 -4.94 9.32 -8 10 C-7.04367001 8.70684939 -6.08486149 7.41553147 -5.125 6.125 C-4.59132813 5.40570313 -4.05765625 4.68640625 -3.5078125 3.9453125 C-2 2 -2 2 0 0 Z " fill="#6A6A6A" transform="translate(444,323)"/>
<path d="M0 0 C4.10958767 1.45044271 7.43258745 3.51110752 11 6 C8.64316506 6.84172676 7.3613046 7.10948624 4.9375 6.375 C2.46969463 4.62365425 1.39630726 2.65298379 0 0 Z " fill="#787878" transform="translate(746,450)"/>
<path d="M0 0 C0.99 0.33 1.98 0.66 3 1 C2.34 1 1.68 1 1 1 C-1.08379509 4.84700632 -2.49686624 8.90054429 -4 13 C-4.66 13 -5.32 13 -6 13 C-5.42685824 8.2715805 -3.42313355 3.42313355 0 0 Z " fill="#A7A7A7" transform="translate(379,450)"/>
<path d="M0 0 C2.0625 0.4375 2.0625 0.4375 4 1 C2.8141763 4.37503669 1.72426311 6.64722731 -1 9 C-1.09765625 2.84765625 -1.09765625 2.84765625 -1 1 C-0.67 0.67 -0.34 0.34 0 0 Z " fill="#868686" transform="translate(417,380)"/>
<path d="M0 0 C2.31 0 4.62 0 7 0 C6.67 0.99 6.34 1.98 6 3 C7.32 3 8.64 3 10 3 C10.33 3.99 10.66 4.98 11 6 C6.95743617 4.77782954 3.50711041 3.37245704 0 1 C0 0.67 0 0.34 0 0 Z " fill="#888888" transform="translate(205,285)"/>
<path d="M0 0 C4.75481646 0.57634139 7.97048212 2.55068521 12 5 C8.71023192 6.09658936 7.28696233 5.79953138 4 5 C4 4.34 4 3.68 4 3 C2.0399719 1.36323743 2.0399719 1.36323743 0 0 Z " fill="#6F6F6F" transform="translate(398,189)"/>
<path d="M0 0 C0.578125 1.91015625 0.578125 1.91015625 1 4 C-0.25 5.4375 -0.25 5.4375 -2 7 C-2.515625 7.86625 -3.03125 8.7325 -3.5625 9.625 C-5 12 -5 12 -7 13 C-5.35821735 8.22390502 -2.73453298 4.20617096 0 0 Z " fill="#707070" transform="translate(196,745)"/>
<path d="M0 0 C1.485 0.99 1.485 0.99 3 2 C3 3.32 3 4.64 3 6 C2.34 6 1.68 6 1 6 C1 8.64 1 11.28 1 14 C0.67 14 0.34 14 0 14 C0 9.38 0 4.76 0 0 Z " fill="#454545" transform="translate(552,496)"/>
<path d="M0 0 C0.33 0.99 0.66 1.98 1 3 C-0.2065625 4.11375 -0.2065625 4.11375 -1.4375 5.25 C-3.76988591 7.75304829 -4.63534394 8.7180955 -5 12 C-5.99 12 -6.98 12 -8 12 C-6.49087042 7.01987239 -3.44338151 3.75740058 0 0 Z " fill="#878787" transform="translate(429,448)"/>
<path d="M0 0 C0.66 0 1.32 0 2 0 C3.2890625 1.53125 3.2890625 1.53125 4.625 3.5 C5.07101562 4.1496875 5.51703125 4.799375 5.9765625 5.46875 C6.31429688 5.9740625 6.65203125 6.479375 7 7 C4.69 6.34 2.38 5.68 0 5 C0 3.35 0 1.7 0 0 Z " fill="#737373" transform="translate(498,439)"/>
<path d="M0 0 C2.88437779 1.29299694 4.87219421 2.65941363 7 5 C5.02 5.33 3.04 5.66 1 6 C1 5.01 1 4.02 1 3 C0.67 2.01 0.34 1.02 0 0 Z " fill="#868686" transform="translate(568,394)"/>
<path d="M0 0 C0.66 0 1.32 0 2 0 C1.34 1.98 0.68 3.96 0 6 C-1.98 6 -3.96 6 -6 6 C-4 4 -2 2 0 0 Z " fill="#717171" transform="translate(434,333)"/>
<path d="M0 0 C1.9375 0.8125 1.9375 0.8125 4 2 C4.33 2.99 4.66 3.98 5 5 C3.68 5.33 2.36 5.66 1 6 C-0.0625 4.125 -0.0625 4.125 -1 2 C-0.67 1.34 -0.34 0.68 0 0 Z " fill="#D3D3D3" transform="translate(201,272)"/>
<path d="M0 0 C-1.28913487 0.67154933 -2.58140204 1.33708859 -3.875 2 C-4.59429687 2.37125 -5.31359375 2.7425 -6.0546875 3.125 C-8 4 -8 4 -10 4 C-10.33 4.66 -10.66 5.32 -11 6 C-11 5.34 -11 4.68 -11 4 C-11.66 3.67 -12.32 3.34 -13 3 C-11.40084119 2.30093058 -9.79544955 1.61610532 -8.1875 0.9375 C-7.29417969 0.55464844 -6.40085937 0.17179688 -5.48046875 -0.22265625 C-3 -1 -3 -1 0 0 Z " fill="#838383" transform="translate(312,248)"/>
<path d="M0 0 C1.32 0.66 2.64 1.32 4 2 C2.25 5.875 2.25 5.875 0 7 C-0.38133299 5.0085944 -0.71325582 3.00720923 -1 1 C-0.67 0.67 -0.34 0.34 0 0 Z " fill="#818181" transform="translate(268,724)"/>
<path d="M0 0 C2.97246802 2.54782974 4.41535288 5.45340883 6 9 C6 9.66 6 10.32 6 11 C5.34 11 4.68 11 4 11 C1.38411497 7.44239635 0.50642192 4.35522853 0 0 Z " fill="#9C9C9C" transform="translate(408,681)"/>
<path d="M0 0 C4.38889325 0.66498383 7.9811485 2.18757677 12 4 C12 4.33 12 4.66 12 5 C6.72209903 5.50265724 4.13774748 4.25108731 0 1 C0 0.67 0 0.34 0 0 Z " fill="#676767" transform="translate(736,575)"/>
<path d="M0 0 C1.48117801 0.28127421 2.95993249 0.57533732 4.4375 0.875 C5.67306641 1.11863281 5.67306641 1.11863281 6.93359375 1.3671875 C7.61550781 1.57601562 8.29742188 1.78484375 9 2 C9.33 2.66 9.66 3.32 10 4 C9.34 4.66 8.68 5.32 8 6 C2.25 3.375 2.25 3.375 0 0 Z " fill="#999999" transform="translate(718,562)"/>
<path d="M0 0 C0.33 0 0.66 0 1 0 C1 2.97 1 5.94 1 9 C0.34 9 -0.32 9 -1 9 C-1.66 9.66 -2.32 10.32 -3 11 C-2.69078116 9.54096742 -2.37751201 8.08279278 -2.0625 6.625 C-1.88847656 5.81289063 -1.71445312 5.00078125 -1.53515625 4.1640625 C-1 2 -1 2 0 0 Z " fill="#525252" transform="translate(528,538)"/>
<path d="M0 0 C0.33 0.66 0.66 1.32 1 2 C1.66 2 2.32 2 3 2 C2.67 4.97 2.34 7.94 2 11 C1.34 10.67 0.68 10.34 0 10 C0 6.7 0 3.4 0 0 Z " fill="#868686" transform="translate(370,481)"/>
<path d="M0 0 C3.36591866 1.44253657 5.51047079 3.33264727 8 6 C6.68 5.67 5.36 5.34 4 5 C3.67 5.66 3.34 6.32 3 7 C2.34 7 1.68 7 1 7 C1.020625 6.21625 1.04125 5.4325 1.0625 4.625 C1.18684063 2.01885039 1.18684063 2.01885039 0 0 Z " fill="#757575" transform="translate(575,399)"/>
<path d="M0 0 C3.26460973 1.80412643 4.88929795 2.83394693 7 6 C5.02 6.33 3.04 6.66 1 7 C0.67 4.69 0.34 2.38 0 0 Z " fill="#7A7A7A" transform="translate(561,388)"/>
<path d="M0 0 C2.79705825 1.39852912 2.90914993 3.13651858 4 6 C4.99 7.485 4.99 7.485 6 9 C3.5625 8.625 3.5625 8.625 1 8 C-0.35439668 5.29120665 -0.06501451 2.99066732 0 0 Z " fill="#555555" transform="translate(260,335)"/>
<path d="M0 0 C-0.33 0.66 -0.66 1.32 -1 2 C-3.64860427 2.59355614 -6.29197322 2.74209269 -9 3 C-8.67 2.01 -8.34 1.02 -8 0 C-4.71023192 -1.09658936 -3.28696233 -0.79953138 0 0 Z " fill="#CFCFCF" transform="translate(405,325)"/>
<path d="M0 0 C0.33 2.31 0.66 4.62 1 7 C-2.73639216 5.75453595 -3.18756513 4.36595047 -5 1 C-2 0 -2 0 0 0 Z " fill="#9F9F9F" transform="translate(610,274)"/>
<path d="M0 0 C0.66 0.99 1.32 1.98 2 3 C0.02 5.31 -1.96 7.62 -4 10 C-4 5.75354935 -2.18249194 3.61475228 0 0 Z " fill="#626262" transform="translate(231,691)"/>
<path d="M0 0 C0.66 0.33 1.32 0.66 2 1 C1.67 1.33 1.34 1.66 1 2 C2.65 2.33 4.3 2.66 6 3 C2.86501708 4.85776765 0.62528568 5.20140476 -3 5 C-1.125 1.125 -1.125 1.125 0 0 Z " fill="#5E5E5E" transform="translate(444,623)"/>
<path d="M0 0 C0 3.65351863 -0.88942301 5.06026776 -3 8 C-5.1875 9.3125 -5.1875 9.3125 -7 10 C-5.33248852 6.05860922 -2.77289351 3.2107188 0 0 Z " fill="#606060" transform="translate(403,586)"/>
<path d="M0 0 C1.65 0.33 3.3 0.66 5 1 C5 1.99 5 2.98 5 4 C0.56923077 6.09230769 0.56923077 6.09230769 -2.3125 5.625 C-2.869375 5.41875 -3.42625 5.2125 -4 5 C-2.02 4.01 -0.04 3.02 2 2 C1.34 1.34 0.68 0.68 0 0 Z " fill="#282828" transform="translate(332,312)"/>
<path d="M0 0 C0.33 0.99 0.66 1.98 1 3 C1.66 3 2.32 3 3 3 C2.37611108 6.61855575 1.8290723 7.1709277 -1 10 C-0.67 6.7 -0.34 3.4 0 0 Z " fill="#8C8C8C" transform="translate(677,482)"/>
<path d="M0 0 C0.75 3.25 0.75 3.25 1 7 C-0.9375 9.4375 -0.9375 9.4375 -3 11 C-2.34 8.03 -1.68 5.06 -1 2 C-1.66 1.67 -2.32 1.34 -3 1 C-1 0 -1 0 0 0 Z " fill="#565656" transform="translate(684,457)"/>
<path d="M0 0 C0.33 0 0.66 0 1 0 C2.125 6.625 2.125 6.625 1 10 C0.34 10 -0.32 10 -1 10 C-1.33 10.66 -1.66 11.32 -2 12 C-1.34 8.04 -0.68 4.08 0 0 Z " fill="#616161" transform="translate(371,452)"/>
<path d="M0 0 C1.98 0.495 1.98 0.495 4 1 C3.67 2.32 3.34 3.64 3 5 C1.68 5.33 0.36 5.66 -1 6 C-0.67 4.02 -0.34 2.04 0 0 Z " fill="#878787" transform="translate(422,423)"/>
<path d="M0 0 C2.9375 0.375 2.9375 0.375 6 1 C6.33 1.66 6.66 2.32 7 3 C5.68 2.67 4.36 2.34 3 2 C3 2.99 3 3.98 3 5 C2.01 4.67 1.02 4.34 0 4 C0 2.68 0 1.36 0 0 Z " fill="#ACACAC" transform="translate(361,343)"/>
<path d="M0 0 C0.93423645 3.01031744 1.04449911 3.86650268 0 7 C-2.5625 8.6875 -2.5625 8.6875 -5 10 C-3.66511872 6.40608886 -2.03977277 3.24509304 0 0 Z " fill="#8B8B8B" transform="translate(247,304)"/>
<path d="M0 0 C0.66 0.99 1.32 1.98 2 3 C0.35 4.98 -1.3 6.96 -3 9 C-3.66 8.67 -4.32 8.34 -5 8 C-3.35 5.36 -1.7 2.72 0 0 Z " fill="#5E5E5E" transform="translate(414,255)"/>
<path d="M0 0 C1.65 0 3.3 0 5 0 C3.70700306 2.88437779 2.34058637 4.87219421 0 7 C-0.66 6.67 -1.32 6.34 -2 6 C-1.01 4.68 -0.02 3.36 1 2 C0.67 1.34 0.34 0.68 0 0 Z " fill="#525252" transform="translate(260,256)"/>
<path d="M0 0 C3.24299151 2.38957269 5.50902342 4.2047869 7 8 C6.01 7.67 5.02 7.34 4 7 C4 6.34 4 5.68 4 5 C3.01 5 2.02 5 1 5 C0.67 3.35 0.34 1.7 0 0 Z " fill="#555555" transform="translate(427,520)"/>
<path d="M0 0 C4.75 0.75 4.75 0.75 7 3 C2.25 4.125 2.25 4.125 0 3 C0 2.01 0 1.02 0 0 Z " fill="#C6C6C6" transform="translate(609,420)"/>
<path d="M0 0 C2.375 -0.1875 2.375 -0.1875 5 0 C5.66 0.99 6.32 1.98 7 3 C6.01 3.495 6.01 3.495 5 4 C4.67 4.66 4.34 5.32 4 6 C2.68 4.02 1.36 2.04 0 0 Z " fill="#777777" transform="translate(340,577)"/>
<path d="M0 0 C1.98 0.99 1.98 0.99 4 2 C3.67 3.98 3.34 5.96 3 8 C1.0549 5.08235 0.54723683 3.37462715 0 0 Z " fill="#8E8E8E" transform="translate(680,545)"/>
<path d="M0 0 C1.32 0.33 2.64 0.66 4 1 C4 1.66 4 2.32 4 3 C6.97 3.495 6.97 3.495 10 4 C10 4.33 10 4.66 10 5 C3.375 4.25 3.375 4.25 0 2 C0 1.34 0 0.68 0 0 Z " fill="#5B5B5B" transform="translate(440,532)"/>
<path d="M0 0 C0.33 1.32 0.66 2.64 1 4 C-0.32 4 -1.64 4 -3 4 C-3.33 4.99 -3.66 5.98 -4 7 C-4 5.35 -4 3.7 -4 2 C-2.68 1.34 -1.36 0.68 0 0 Z " fill="#626262" transform="translate(523,488)"/>
<path d="M0 0 C0.33 0 0.66 0 1 0 C1.33 2.64 1.66 5.28 2 8 C1.34 8 0.68 8 0 8 C-0.33 9.32 -0.66 10.64 -1 12 C-1.08159574 7.83861737 -0.98248524 4.0527516 0 0 Z " fill="#535353" transform="translate(368,466)"/>
<path d="M0 0 C2.31 1.98 4.62 3.96 7 6 C6.01 6.33 5.02 6.66 4 7 C0 2.25 0 2.25 0 0 Z " fill="#909090" transform="translate(479,304)"/>
</svg>
